<?xml version="1.0" encoding="UTF-8" standalone="no"?>
<!-- Created with Inkscape (http://www.inkscape.org/) -->

<svg
   width="24.466003mm"
   height="18.803612mm"
   viewBox="0 0 24.466003 18.803611"
   version="1.1"
   id="svg5"
   inkscape:version="1.2.1 (9c6d41e410, 2022-07-14)"
   sodipodi:docname="120.svg"
   inkscape:export-filename="symbols 5/dont cut.svg"
   inkscape:export-xdpi="96"
   inkscape:export-ydpi="96"
   xml:space="preserve"
   xmlns:inkscape="http://www.inkscape.org/namespaces/inkscape"
   xmlns:sodipodi="http://sodipodi.sourceforge.net/DTD/sodipodi-0.dtd"
   xmlns="http://www.w3.org/2000/svg"
   xmlns:svg="http://www.w3.org/2000/svg"><sodipodi:namedview
     id="namedview7"
     pagecolor="#ffffff"
     bordercolor="#666666"
     borderopacity="1.0"
     inkscape:showpageshadow="2"
     inkscape:pageopacity="0.0"
     inkscape:pagecheckerboard="0"
     inkscape:deskcolor="#d1d1d1"
     inkscape:document-units="mm"
     showgrid="false"
     inkscape:zoom="0.58295071"
     inkscape:cx="514.62327"
     inkscape:cy="555.79313"
     inkscape:window-width="1920"
     inkscape:window-height="1043"
     inkscape:window-x="0"
     inkscape:window-y="0"
     inkscape:window-maximized="1"
     inkscape:current-layer="layer1"
     inkscape:lockguides="false" /><defs
     id="defs2" /><g
     inkscape:label="Layer 1"
     inkscape:groupmode="layer"
     id="layer1"
     transform="translate(-34.160119,13.595487)"><g
       id="g71495"><path
         id="rect7607-3-19"
         style="fill:#ffffff;stroke:#000000;stroke-width:2.11667;stroke-linejoin:round"
         d="M 35.218441,-12.53716 H 57.567785 V 4.1497869 H 35.218441 Z" /><g
         aria-label="120"
         transform="scale(0.91586767,1.0918608)"
         id="text7611-4"
         style="font-size:12.7px;line-height:125%;font-family:QTHelvetCnd-Black;-inkscape-font-specification:QTHelvetCnd-Black;letter-spacing:0px;word-spacing:0px;stroke-width:2.11667"><path
           d="M 45.778012,0.34420171 V -8.2155982 h -1.5748 c -0.2032,1.0668 -1.2954,1.27 -2.2352,1.27 v 1.4224 h 1.6002 v 5.86739991 z"
           id="path5144" /><path
           d="M 52.864619,0.34420171 V -1.3321983 H 49.96902 c 1.2192,-1.9049999 2.870199,-2.1843999 2.870199,-4.6481999 0,-1.7018 -1.117599,-2.286 -2.692399,-2.286 -1.9812,0 -2.7432,0.889 -2.7432,2.8448 h 2.0828 v -0.3048 c 0,-0.4826 0.0254,-1.1176 0.6096,-1.1176 0.5334,0 0.5842,0.5842 0.5842,0.9906 0,1.905 -3.3274,2.6162 -3.3274,6.19759991 z"
           id="path5146" /><path
           d="m 59.341627,-4.1007982 c 0,-2.1336 -0.127,-4.1656 -2.7686,-4.1656 -2.7686,0 -2.921,1.9304 -2.921,4.1656 0,0.1016 -0.0254,0.2794 -0.0254,0.381 0,2.3113999 0.1016,4.24179991 2.8702,4.24179991 2.8194,0 2.8448,-2.43840001 2.8448,-4.62279991 z m -2.2352,1.27 c 0,1.2699999 -0.0762,1.95579993 -0.6096,1.95579993 -0.5842,0 -0.6604,-0.88900003 -0.6604,-2.43839993 0,-0.2286 0.0254,-0.508 0.0254,-0.762 0,-0.3556 -0.0254,-0.7366 -0.0254,-1.0668 0,-0.889 0.1016,-1.7018 0.6604,-1.7018 0.5588,0 0.6096,0.7874 0.6096,1.9304 z"
           id="path5148" /></g></g></g></svg>
