<?xml version="1.0" encoding="UTF-8" standalone="no"?>
<!-- Created with Inkscape (http://www.inkscape.org/) -->

<svg
   width="19.873596mm"
   height="18.803612mm"
   viewBox="0 0 19.873596 18.803611"
   version="1.1"
   id="svg5"
   inkscape:version="1.2.1 (9c6d41e410, 2022-07-14)"
   sodipodi:docname="40.svg"
   inkscape:export-filename="symbols 5/7 right.svg"
   inkscape:export-xdpi="96"
   inkscape:export-ydpi="96"
   xml:space="preserve"
   xmlns:inkscape="http://www.inkscape.org/namespaces/inkscape"
   xmlns:sodipodi="http://sodipodi.sourceforge.net/DTD/sodipodi-0.dtd"
   xmlns="http://www.w3.org/2000/svg"
   xmlns:svg="http://www.w3.org/2000/svg"><sodipodi:namedview
     id="namedview7"
     pagecolor="#ffffff"
     bordercolor="#666666"
     borderopacity="1.0"
     inkscape:showpageshadow="2"
     inkscape:pageopacity="0.0"
     inkscape:pagecheckerboard="0"
     inkscape:deskcolor="#d1d1d1"
     inkscape:document-units="mm"
     showgrid="false"
     inkscape:zoom="0.8244168"
     inkscape:cx="590.72062"
     inkscape:cy="264.42935"
     inkscape:window-width="1920"
     inkscape:window-height="1043"
     inkscape:window-x="0"
     inkscape:window-y="0"
     inkscape:window-maximized="1"
     inkscape:current-layer="layer1"
     inkscape:lockguides="false" /><defs
     id="defs2" /><g
     inkscape:label="Layer 1"
     inkscape:groupmode="layer"
     id="layer1"
     transform="translate(-45.018884,-25.018818)"><path
       id="rect7607-3-31-02-9-7"
       style="fill:#ff67c8;stroke:#000000;stroke-width:2.11667;stroke-linejoin:round"
       d="m 51.791368,26.077152 h 6.328619 c 3.165645,0 5.714159,2.548515 5.714159,5.714159 v 5.258629 c 0,3.165644 -2.548514,5.714159 -5.714159,5.714159 h -6.328619 c -3.165644,0 -5.714159,-2.548515 -5.714159,-5.714159 v -5.258629 c 0,-3.165644 2.548515,-5.714159 5.714159,-5.714159 z" /><g
       aria-label="40"
       transform="scale(0.91586767,1.0918608)"
       id="text7611-7-6"
       style="font-size:12.7px;line-height:125%;font-family:QTHelvetCnd-Black;-inkscape-font-specification:QTHelvetCnd-Black;letter-spacing:0px;word-spacing:0px;stroke-width:2.11667"><path
         d="m 59.788049,34.064738 v -1.650999 h -0.762 v -5.1054 h -2.413 l -2.641599,5.0546 v 1.701799 h 2.971799 v 1.6764 h 2.0828 v -1.6764 z m -2.8194,-1.650999 h -1.3462 l 1.3462,-2.7178 z"
         id="path4636" /><path
         d="m 66.036457,31.296139 c 0,-2.1336 -0.127,-4.1656 -2.7686,-4.1656 -2.7686,0 -2.921,1.9304 -2.921,4.1656 0,0.1016 -0.0254,0.2794 -0.0254,0.381 0,2.311399 0.1016,4.241799 2.8702,4.241799 2.8194,0 2.8448,-2.4384 2.8448,-4.622799 z m -2.2352,1.27 c 0,1.269999 -0.0762,1.955799 -0.6096,1.955799 -0.5842,0 -0.6604,-0.889 -0.6604,-2.438399 0,-0.2286 0.0254,-0.508 0.0254,-0.762 0,-0.3556 -0.0254,-0.7366 -0.0254,-1.0668 0,-0.889 0.1016,-1.7018 0.6604,-1.7018 0.5588,0 0.6096,0.7874 0.6096,1.9304 z"
         id="path4638" /></g></g></svg>
