<?xml version="1.0" encoding="UTF-8" standalone="no"?>
<!-- Created with Inkscape (http://www.inkscape.org/) -->

<svg
   width="24.466003mm"
   height="18.803612mm"
   viewBox="0 0 24.466003 18.803611"
   version="1.1"
   id="svg5"
   inkscape:version="1.2.1 (9c6d41e410, 2022-07-14)"
   sodipodi:docname="400.svg"
   inkscape:export-filename="symbols 5/dont cut.svg"
   inkscape:export-xdpi="96"
   inkscape:export-ydpi="96"
   xml:space="preserve"
   xmlns:inkscape="http://www.inkscape.org/namespaces/inkscape"
   xmlns:sodipodi="http://sodipodi.sourceforge.net/DTD/sodipodi-0.dtd"
   xmlns="http://www.w3.org/2000/svg"
   xmlns:svg="http://www.w3.org/2000/svg"><sodipodi:namedview
     id="namedview7"
     pagecolor="#ffffff"
     bordercolor="#666666"
     borderopacity="1.0"
     inkscape:showpageshadow="2"
     inkscape:pageopacity="0.0"
     inkscape:pagecheckerboard="0"
     inkscape:deskcolor="#d1d1d1"
     inkscape:document-units="mm"
     showgrid="false"
     inkscape:zoom="0.58295071"
     inkscape:cx="514.62327"
     inkscape:cy="555.79313"
     inkscape:window-width="1920"
     inkscape:window-height="1043"
     inkscape:window-x="0"
     inkscape:window-y="0"
     inkscape:window-maximized="1"
     inkscape:current-layer="layer1"
     inkscape:lockguides="false" /><defs
     id="defs2" /><g
     inkscape:label="Layer 1"
     inkscape:groupmode="layer"
     id="layer1"
     transform="translate(-66.26861,-11.720752)"><g
       id="g71584"><path
         id="rect7607-3-4-7"
         style="fill:#ffffff;stroke:#000000;stroke-width:2.11667;stroke-linejoin:round"
         d="M 67.32695,12.77909 H 89.676294 V 29.466037 H 67.32695 Z" /><g
         id="g71578"><g
           aria-label="400"
           transform="scale(0.91586767,1.0918608)"
           id="text7611-5-6"
           style="font-size:12.7px;line-height:125%;font-family:QTHelvetCnd-Black;-inkscape-font-specification:QTHelvetCnd-Black;letter-spacing:0px;word-spacing:0px;stroke-width:2.11667"><path
             d="m 82.372736,21.854135 v -1.651 h -0.762 v -5.1054 h -2.413 l -2.6416,5.0546 v 1.7018 h 2.9718 v 1.6764 h 2.0828 v -1.6764 z m -2.8194,-1.651 h -1.3462 l 1.3462,-2.7178 z"
             id="path4927" /><path
             d="m 88.621143,19.085535 c 0,-2.1336 -0.127,-4.1656 -2.7686,-4.1656 -2.7686,0 -2.921,1.9304 -2.921,4.1656 0,0.1016 -0.0254,0.2794 -0.0254,0.381 0,2.3114 0.1016,4.2418 2.8702,4.2418 2.8194,0 2.8448,-2.4384 2.8448,-4.6228 z m -2.2352,1.27 c 0,1.27 -0.0762,1.9558 -0.6096,1.9558 -0.5842,0 -0.6604,-0.889 -0.6604,-2.4384 0,-0.2286 0.0254,-0.508 0.0254,-0.762 0,-0.3556 -0.0254,-0.7366 -0.0254,-1.0668 0,-0.889 0.1016,-1.7018 0.6604,-1.7018 0.5588,0 0.6096,0.7874 0.6096,1.9304 z"
             id="path4929" /><path
             d="m 94.86955,19.085535 c 0,-2.1336 -0.127,-4.1656 -2.7686,-4.1656 -2.768599,0 -2.920999,1.9304 -2.920999,4.1656 0,0.1016 -0.0254,0.2794 -0.0254,0.381 0,2.3114 0.1016,4.2418 2.870199,4.2418 2.8194,0 2.8448,-2.4384 2.8448,-4.6228 z m -2.2352,1.27 c 0,1.27 -0.0762,1.9558 -0.6096,1.9558 -0.5842,0 -0.6604,-0.889 -0.6604,-2.4384 0,-0.2286 0.0254,-0.508 0.0254,-0.762 0,-0.3556 -0.0254,-0.7366 -0.0254,-1.0668 0,-0.889 0.1016,-1.7018 0.6604,-1.7018 0.5588,0 0.6096,0.7874 0.6096,1.9304 z"
             id="path4931" /></g></g></g></g></svg>
