<?xml version="1.0" encoding="UTF-8" standalone="no"?>
<!-- Created with Inkscape (http://www.inkscape.org/) -->

<svg
   width="19.873596mm"
   height="18.803619mm"
   viewBox="0 0 19.873596 18.803619"
   version="1.1"
   id="svg5"
   inkscape:version="1.2.1 (9c6d41e410, 2022-07-14)"
   sodipodi:docname="80.svg"
   inkscape:export-filename="symbols 5/7 right.svg"
   inkscape:export-xdpi="96"
   inkscape:export-ydpi="96"
   xml:space="preserve"
   xmlns:inkscape="http://www.inkscape.org/namespaces/inkscape"
   xmlns:sodipodi="http://sodipodi.sourceforge.net/DTD/sodipodi-0.dtd"
   xmlns="http://www.w3.org/2000/svg"
   xmlns:svg="http://www.w3.org/2000/svg"><sodipodi:namedview
     id="namedview7"
     pagecolor="#ffffff"
     bordercolor="#666666"
     borderopacity="1.0"
     inkscape:showpageshadow="2"
     inkscape:pageopacity="0.0"
     inkscape:pagecheckerboard="0"
     inkscape:deskcolor="#d1d1d1"
     inkscape:document-units="mm"
     showgrid="false"
     inkscape:zoom="0.8244168"
     inkscape:cx="590.72062"
     inkscape:cy="361.46765"
     inkscape:window-width="1920"
     inkscape:window-height="1043"
     inkscape:window-x="0"
     inkscape:window-y="0"
     inkscape:window-maximized="1"
     inkscape:current-layer="layer1"
     inkscape:lockguides="false" /><defs
     id="defs2" /><g
     inkscape:label="Layer 1"
     inkscape:groupmode="layer"
     id="layer1"
     transform="translate(-45.018884,-115.88976)"><path
       id="rect7607-3-31-02-9-3"
       style="fill:#ffe0c8;stroke:#000000;stroke-width:2.11667;stroke-linejoin:round"
       d="m 51.791368,116.94809 h 6.328619 c 3.165645,0 5.714159,2.54851 5.714159,5.71416 v 5.25863 c 0,3.16564 -2.548514,5.71416 -5.714159,5.71416 h -6.328619 c -3.165644,0 -5.714159,-2.54852 -5.714159,-5.71416 v -5.25863 c 0,-3.16565 2.548515,-5.71416 5.714159,-5.71416 z" /><g
       aria-label="80"
       transform="scale(0.91586767,1.0918608)"
       id="text7611-61-3"
       style="font-size:12.7px;line-height:125%;font-family:QTHelvetCnd-Black;-inkscape-font-specification:QTHelvetCnd-Black;letter-spacing:0px;word-spacing:0px;stroke-width:2.11667"><path
         d="m 59.72455,116.55389 c 0,-1.016 -0.3302,-1.9558 -1.4224,-2.1336 0.889,-0.2032 1.1938,-1.0668 1.1938,-1.905 0,-1.6764 -1.1938,-2.159 -2.6416,-2.159 -1.4224,0 -2.6924,0.5588 -2.6924,2.159 0,0.8128 0.3556,1.6764 1.1938,1.905 -1.0922,0.2032 -1.3716,1.0922 -1.3716,2.1082 0,1.9558 1.1176,2.5908 2.8956,2.5908 1.6764,0 2.8448,-0.762 2.8448,-2.5654 z m -2.3114,-3.7592 c 0,0.3556 -0.0762,1.0414 -0.5588,1.0414 -0.5334,0 -0.5842,-0.6096 -0.5842,-1.016 0,-0.4318 0.0254,-1.0668 0.5842,-1.0668 0.5334,0 0.5588,0.635 0.5588,1.0414 z m 0.1016,3.6322 c 0,0.4826 -0.0254,1.3462 -0.6604,1.3462 -0.6604,0 -0.6858,-0.889 -0.6858,-1.3716 0,-0.4826 0,-1.2446 0.6858,-1.2446 0.6604,0 0.6604,0.7874 0.6604,1.27 z"
         id="path4622" /><path
         d="m 66.023758,114.52189 c 0,-2.1336 -0.127,-4.1656 -2.7686,-4.1656 -2.7686,0 -2.921,1.9304 -2.921,4.1656 0,0.1016 -0.0254,0.2794 -0.0254,0.381 0,2.3114 0.1016,4.2418 2.8702,4.2418 2.8194,0 2.8448,-2.4384 2.8448,-4.6228 z m -2.2352,1.27 c 0,1.27 -0.0762,1.9558 -0.6096,1.9558 -0.5842,0 -0.6604,-0.889 -0.6604,-2.4384 0,-0.2286 0.0254,-0.508 0.0254,-0.762 0,-0.3556 -0.0254,-0.7366 -0.0254,-1.0668 0,-0.889 0.1016,-1.7018 0.6604,-1.7018 0.5588,0 0.6096,0.7874 0.6096,1.9304 z"
         id="path4624" /></g></g></svg>
