<?xml version="1.0" encoding="UTF-8" standalone="no"?>
<!-- Created with Inkscape (http://www.inkscape.org/) -->

<svg
   width="24.466003mm"
   height="18.803612mm"
   viewBox="0 0 24.466003 18.803611"
   version="1.1"
   id="svg5"
   inkscape:version="1.2.1 (9c6d41e410, 2022-07-14)"
   sodipodi:docname="950.svg"
   inkscape:export-filename="symbols 5/dont cut.svg"
   inkscape:export-xdpi="96"
   inkscape:export-ydpi="96"
   xml:space="preserve"
   xmlns:inkscape="http://www.inkscape.org/namespaces/inkscape"
   xmlns:sodipodi="http://sodipodi.sourceforge.net/DTD/sodipodi-0.dtd"
   xmlns="http://www.w3.org/2000/svg"
   xmlns:svg="http://www.w3.org/2000/svg"><sodipodi:namedview
     id="namedview7"
     pagecolor="#ffffff"
     bordercolor="#666666"
     borderopacity="1.0"
     inkscape:showpageshadow="2"
     inkscape:pageopacity="0.0"
     inkscape:pagecheckerboard="0"
     inkscape:deskcolor="#d1d1d1"
     inkscape:document-units="mm"
     showgrid="false"
     inkscape:zoom="0.58295071"
     inkscape:cx="514.62327"
     inkscape:cy="555.79313"
     inkscape:window-width="1920"
     inkscape:window-height="1043"
     inkscape:window-x="0"
     inkscape:window-y="0"
     inkscape:window-maximized="1"
     inkscape:current-layer="layer1"
     inkscape:lockguides="false" /><defs
     id="defs2" /><g
     inkscape:label="Layer 1"
     inkscape:groupmode="layer"
     id="layer1"
     transform="translate(-97.409267,11.944547)"><g
       id="g71604"><path
         id="rect7607-3-19-17"
         style="fill:#ffffff;stroke:#000000;stroke-width:2.11667;stroke-linejoin:round"
         d="M 98.467613,-10.886214 H 120.81696 V 5.8007326 H 98.467613 Z" /><g
         aria-label="950"
         transform="scale(0.91586767,1.0918608)"
         id="text7611-4-59"
         style="font-size:12.7px;line-height:125%;font-family:QTHelvetCnd-Black;-inkscape-font-specification:QTHelvetCnd-Black;letter-spacing:0px;word-spacing:0px;stroke-width:2.11667"><path
           d="m 115.77711,-2.6395511 c 0,-2.4129999 -0.127,-4.1147999 -2.9718,-4.1147999 -1.8542,0 -2.7432,1.0414 -2.7432,2.8447999 0,1.5494 0.2794,2.9464 2.1336,2.9464 0.5588,0 1.0668,-0.1778 1.397,-0.6858 -0.0508,0.381 -0.0508,0.7874 -0.0762,1.16839999 v 0.127 c 0,0.43179999 -0.0254,0.99059998 -0.6096,0.99059998 -0.4826,0 -0.5842,-0.40639999 -0.5842,-0.81279998 h -2.0828 c 0.0254,1.57480001 0.9906,2.20980001 2.4892,2.20980001 2.9718,0 3.048,-1.95580002 3.048,-4.6736 z m -2.2606,-0.9652 c 0,0.5334 -0.0508,1.1176 -0.635,1.1176 -0.5842,0 -0.635,-0.635 -0.635,-1.1938 0,-0.0254 0.0254,-0.127 0.0254,-0.1524 0,-0.8635999 0.0508,-1.4985999 0.635,-1.4985999 0.5334,0 0.6096,0.5588 0.6096,1.3715999 z"
           id="path4746" /><path
           d="m 121.92392,-1.2171511 c 0,-1.4732 -0.4064,-2.794 -2.1336,-2.794 -0.6096,0 -1.27,0.2032 -1.5494,0.7874 0.0762,-0.5334 0.0762,-1.1684 0.1016,-1.7017999 h 3.2258 v -1.651 h -4.8768 l -0.1778,4.7243999 2.0066,0.0254 c 0.0254,-0.3556 0.2032,-0.6858 0.6096,-0.6858 0.5588,0 0.6096,0.6096 0.6096,1.4732 0,1.01599998 -0.0508,1.65099997 -0.6096,1.65099997 -0.5842,0 -0.635,-0.60959999 -0.635,-1.09219998 v -0.2032 h -2.0828 c 0,1.87960001 0.8636,2.71780001 2.7178,2.71780001 2.159,0 2.794,-1.27000003 2.794,-3.2512 z"
           id="path4748" /><path
           d="m 128.40092,-2.5887511 c 0,-2.1335999 -0.127,-4.1655999 -2.7686,-4.1655999 -2.7686,0 -2.921,1.9304 -2.921,4.1655999 0,0.1016 -0.0254,0.2794 -0.0254,0.381 0,2.31139998 0.1016,4.2418 2.8702,4.2418 2.8194,0 2.8448,-2.43840001 2.8448,-4.6228 z m -2.2352,1.27 c 0,1.26999998 -0.0762,1.95579997 -0.6096,1.95579997 -0.5842,0 -0.6604,-0.88899998 -0.6604,-2.43839997 0,-0.2286 0.0254,-0.508 0.0254,-0.762 0,-0.3556 -0.0254,-0.7366 -0.0254,-1.0668 0,-0.8889999 0.1016,-1.7017999 0.6604,-1.7017999 0.5588,0 0.6096,0.7874 0.6096,1.9303999 z"
           id="path4750" /></g></g></g></svg>
