<?xml version="1.0" encoding="UTF-8" standalone="no"?>
<!-- Created with Inkscape (http://www.inkscape.org/) -->

<svg
   width="19.172661mm"
   height="18.795609mm"
   viewBox="0 0 19.17266 18.795608"
   version="1.1"
   id="svg5"
   inkscape:version="1.2.1 (9c6d41e410, 2022-07-14)"
   sodipodi:docname="arrows.svg"
   inkscape:export-filename="symbols 5/dont cut.svg"
   inkscape:export-xdpi="96"
   inkscape:export-ydpi="96"
   xml:space="preserve"
   xmlns:inkscape="http://www.inkscape.org/namespaces/inkscape"
   xmlns:sodipodi="http://sodipodi.sourceforge.net/DTD/sodipodi-0.dtd"
   xmlns="http://www.w3.org/2000/svg"
   xmlns:svg="http://www.w3.org/2000/svg"><sodipodi:namedview
     id="namedview7"
     pagecolor="#ffffff"
     bordercolor="#666666"
     borderopacity="1.0"
     inkscape:showpageshadow="2"
     inkscape:pageopacity="0.0"
     inkscape:pagecheckerboard="0"
     inkscape:deskcolor="#d1d1d1"
     inkscape:document-units="mm"
     showgrid="false"
     inkscape:zoom="0.58295071"
     inkscape:cx="608.11316"
     inkscape:cy="555.79313"
     inkscape:window-width="1920"
     inkscape:window-height="1043"
     inkscape:window-x="0"
     inkscape:window-y="0"
     inkscape:window-maximized="1"
     inkscape:current-layer="layer1"
     inkscape:lockguides="false" /><defs
     id="defs2" /><g
     inkscape:label="Layer 1"
     inkscape:groupmode="layer"
     id="layer1"
     transform="translate(148.13187,-12.484272)"><g
       id="g42600"
       transform="translate(-100.49205,-32.406052)"><rect
         style="fill:#ff0000;fill-opacity:1;stroke:#000000;stroke-width:2.11667;stroke-linecap:round;stroke-linejoin:round;stroke-dasharray:none;paint-order:normal"
         id="rect7601-9-9-2-8-9"
         width="17.055986"
         height="16.678934"
         x="29.525499"
         y="45.948662"
         transform="scale(-1,1)" /><path
         d="m -45.010497,54.033986 c 0,0 1.09431,0.82603 2.577443,0.41301 1.484604,-0.41301 2.366829,-1.673188 2.496437,-1.736597 0.129608,-0.06336 0.254801,0.209762 0.297506,0.305693 0.04267,0.09598 0.19294,0.346339 0.614167,0.694315 0.637736,0.528465 -1.226862,2.487833 -1.1326,2.855319 0.131081,0.520328 0.147281,1.499199 0.01916,2.282946 -0.427114,0.49919 -0.279833,0.874803 -0.301921,0.944723 -0.08979,0.276431 0.263631,0.28943 0.595011,-0.360976 0.203254,-0.40001 0.07222,-1.78213 0.28573,-2.666693 0.244487,-1.008146 1.552364,-1.518722 2.01188,-2.027664 0.301932,-0.33334 0.460997,-0.798383 0.729046,-0.917086 0.251855,0.250407 1.281361,0.182122 1.369725,0.323577 0.129608,0.20651 0.144338,1.048792 -0.159056,1.287825 -0.301931,0.239022 -0.187053,0.22276 -0.129619,0.239022 0.05749,0.01625 -0.01472,0.26992 0.316662,-0.03086 0.33139,-0.302442 0.54789,-0.891076 0.677498,-1.256928 0.129608,-0.365862 0.471302,-0.34309 0.805635,-0.575611 0.477199,-0.333339 0.813005,-1.252052 1.123767,-1.252052 0.04119,0 0.288674,0.143091 0.590606,0.07973 0.301923,-0.06347 0.359367,-0.222771 0.6775,-0.159351 0.103099,0.02116 0.103099,0.02923 0.198827,0.06185 0.2003,0.06663 0.625952,-0.291055 0.43154,-0.430896 -0.153179,-0.110564 -0.189998,-0.14634 -0.427124,-0.297567 -0.08397,-0.05365 -0.31518,-0.175612 -0.356422,-0.360976 -0.03685,-0.191873 -0.478672,-0.422769 -0.692228,-0.453669 -0.216501,-0.03249 -0.216501,-0.0065 -0.303404,0.04068 -0.08693,0.04712 -1.063379,-0.717088 -1.223917,-0.635782 -0.16201,0.08125 0.144337,0.811395 0.63332,0.842282 0.488976,0.03249 0.316652,0.03249 0.316652,0.03249 0,0 -0.695172,0.596759 -1.069266,0.645532 -0.374096,0.04712 -0.780604,-0.443908 -1.106095,-0.7496 -0.284248,-0.266669 -1.257792,-1.526846 -2.652549,-1.50896 -1.567093,0.02116 -2.318228,1.411403 -2.54357,1.717096 -0.387353,0.521952 -1.684915,2.388638 -2.515582,2.611411 -0.873392,0.234147 -1.580339,0.06173 -2.041337,-0.1935 -0.459526,-0.256919 -0.559676,-0.320329 -0.113407,0.237396 z"
         id="path13859-0"
         style="stroke-width:2.11667;stroke-dasharray:none" /></g></g></svg>
