<?xml version="1.0" encoding="UTF-8" standalone="no"?>
<!-- Created with Inkscape (http://www.inkscape.org/) -->

<svg
   width="30.830969mm"
   height="18.795597mm"
   viewBox="0 0 30.830968 18.795597"
   version="1.1"
   id="svg5"
   inkscape:version="1.2.1 (9c6d41e410, 2022-07-14)"
   sodipodi:docname="early.svg"
   inkscape:export-filename="symbols 5/dont cut.svg"
   inkscape:export-xdpi="96"
   inkscape:export-ydpi="96"
   xml:space="preserve"
   xmlns:inkscape="http://www.inkscape.org/namespaces/inkscape"
   xmlns:sodipodi="http://sodipodi.sourceforge.net/DTD/sodipodi-0.dtd"
   xmlns="http://www.w3.org/2000/svg"
   xmlns:svg="http://www.w3.org/2000/svg"><sodipodi:namedview
     id="namedview7"
     pagecolor="#ffffff"
     bordercolor="#666666"
     borderopacity="1.0"
     inkscape:showpageshadow="2"
     inkscape:pageopacity="0.0"
     inkscape:pagecheckerboard="0"
     inkscape:deskcolor="#d1d1d1"
     inkscape:document-units="mm"
     showgrid="false"
     inkscape:zoom="0.58295071"
     inkscape:cx="514.62327"
     inkscape:cy="420.27567"
     inkscape:window-width="1920"
     inkscape:window-height="1043"
     inkscape:window-x="0"
     inkscape:window-y="0"
     inkscape:window-maximized="1"
     inkscape:current-layer="layer1"
     inkscape:lockguides="false" /><defs
     id="defs2" /><g
     inkscape:label="Layer 1"
     inkscape:groupmode="layer"
     id="layer1"
     transform="translate(216.52551,51.978431)"><g
       id="g21233"
       transform="translate(-5.2916667,-84.666671)"><path
         id="rect7601-9-9-2-8-4-4-9-7-1-1-3"
         style="fill:#ffffff;stroke:#000000;stroke-width:2.11667;stroke-linecap:round;stroke-linejoin:round"
         transform="scale(-1,1)"
         d="m 181.46121,33.746574 h 28.7143 v 16.678929 h -28.7143 z" /><g
         aria-label="EARLY"
         transform="scale(0.91586767,1.0918608)"
         id="text7611-2-6-0-2-0-7-9"
         style="font-size:11.2889px;line-height:125%;font-family:QTHelvetCnd-Black;-inkscape-font-specification:QTHelvetCnd-Black;letter-spacing:0px;word-spacing:0px;stroke-width:2.11667"><path
           d="m -222.42655,42.304451 v -1.580446 h -2.59645 v -1.512713 h 2.32552 v -1.557868 h -2.32552 v -1.309512 h 2.48356 v -1.580446 h -4.44783 v 7.540985 z"
           id="path134" /><path
           d="m -215.94672,42.304451 -1.80623,-7.540985 h -2.48356 l -1.87395,7.540985 h 2.07715 l 0.24836,-1.264357 h 1.53529 l 0.24836,1.264357 z m -2.5513,-2.799647 h -1.08373 l 0.54187,-3.228626 z"
           id="path136" /><path
           d="m -210.12166,42.304451 v -0.112889 c -0.27093,-0.112889 -0.29351,-0.496712 -0.29351,-0.835379 0,-0.293511 -0.0226,-0.587022 -0.0226,-0.880534 -0.0226,-0.970845 -0.11289,-1.761068 -1.24178,-1.896535 0.94827,-0.2032 1.28694,-0.812801 1.28694,-1.761069 0,-1.693335 -0.94827,-2.054579 -2.41583,-2.054579 h -2.73191 v 7.540985 h 1.98685 v -3.048003 c 1.24177,0 1.12889,0.316089 1.15146,1.354668 l 0.0226,0.609601 c 0,0.338667 0,0.767645 0.15805,1.083734 z m -2.2352,-5.260628 c 0,0.812801 -0.51929,0.880535 -1.19662,0.880535 v -1.761069 c 0.72248,0 1.19662,0.02258 1.19662,0.880534 z"
           id="path138" /><path
           d="m -205.0868,42.304451 v -1.580446 h -2.4384 v -5.960539 h -2.00943 v 7.540985 z"
           id="path140" /><path
           d="m -200.18741,34.763466 h -2.14489 l -0.72249,2.528713 -0.76765,-2.528713 h -2.19005 l 1.9417,4.560715 v 2.98027 h 1.96426 v -2.98027 z"
           id="path142" /></g></g></g></svg>
