<?xml version="1.0" encoding="UTF-8" standalone="no"?>
<!-- Created with Inkscape (http://www.inkscape.org/) -->

<svg
   width="19.172661mm"
   height="18.795609mm"
   viewBox="0 0 19.17266 18.795608"
   version="1.1"
   id="svg5"
   inkscape:version="1.2.1 (9c6d41e410, 2022-07-14)"
   sodipodi:docname="arrows.svg"
   inkscape:export-filename="symbols 5/dont cut.svg"
   inkscape:export-xdpi="96"
   inkscape:export-ydpi="96"
   xml:space="preserve"
   xmlns:inkscape="http://www.inkscape.org/namespaces/inkscape"
   xmlns:sodipodi="http://sodipodi.sourceforge.net/DTD/sodipodi-0.dtd"
   xmlns="http://www.w3.org/2000/svg"
   xmlns:svg="http://www.w3.org/2000/svg"><sodipodi:namedview
     id="namedview7"
     pagecolor="#ffffff"
     bordercolor="#666666"
     borderopacity="1.0"
     inkscape:showpageshadow="2"
     inkscape:pageopacity="0.0"
     inkscape:pagecheckerboard="0"
     inkscape:deskcolor="#d1d1d1"
     inkscape:document-units="mm"
     showgrid="false"
     inkscape:zoom="0.58295071"
     inkscape:cx="608.11316"
     inkscape:cy="555.79313"
     inkscape:window-width="1920"
     inkscape:window-height="1043"
     inkscape:window-x="0"
     inkscape:window-y="0"
     inkscape:window-maximized="1"
     inkscape:current-layer="layer1"
     inkscape:lockguides="false" /><defs
     id="defs2" /><g
     inkscape:label="Layer 1"
     inkscape:groupmode="layer"
     id="layer1"
     transform="translate(170.77833,-75.940017)"><g
       id="g40828"
       transform="translate(-89.314698,-99.251486)"><rect
         style="fill:#ffffff;fill-opacity:1;stroke:#000000;stroke-width:2.11667;stroke-linecap:round;stroke-linejoin:round;stroke-dasharray:none;paint-order:normal"
         id="rect7601-9-9-2-8-6-4-92-6"
         width="17.055986"
         height="16.678934"
         x="63.349316"
         y="176.24983"
         transform="scale(-1,1)" /><path
         d="m -75.624598,179.37762 c -0.30978,0.0838 -0.6774,0.27293 -0.968965,0.49318 l -0.243039,0.18617 -0.03643,-0.0899 c -0.05464,-0.13647 -0.279469,-0.33499 -0.410026,-0.35984 -0.300601,-0.0558 -0.577153,0.0589 -0.707709,0.29466 -0.133618,0.24198 -0.124578,0.30715 0.173104,1.32149 0.148771,0.51179 0.968823,3.3161 1.822385,6.23515 0.853419,2.91592 1.576285,5.35727 1.603673,5.42245 0.0274,0.0652 0.09413,0.1582 0.148774,0.20477 0.294623,0.2637 0.789739,0.17992 0.962844,-0.16444 0.130695,-0.25745 0.136674,-0.22948 -0.552818,-2.59017 -0.352325,-1.20051 -0.640833,-2.20249 -0.640833,-2.22422 0,-0.0217 0.154891,-0.20165 0.343149,-0.39704 0.407105,-0.42829 0.613716,-0.54616 0.97508,-0.571 0.300742,-0.0186 0.586188,0.0589 1.503429,0.41252 1.120793,0.43113 2.038032,0.71655 2.812479,0.87475 0.206612,0.0403 0.422262,0.0527 0.880812,0.0558 0.528487,0 0.640831,-0.009 0.874695,-0.0683 0.589246,-0.15507 1.020545,-0.41565 1.488273,-0.90584 0.218708,-0.2265 0.294623,-0.32577 0.282527,-0.36609 -0.02433,-0.0776 -0.719805,-2.45683 -1.567247,-5.36963 -0.391812,-1.33385 -0.716746,-2.42274 -0.728982,-2.41962 -0.0092,0.006 -0.173103,0.17992 -0.364421,0.38782 -0.716745,0.77861 -1.047797,0.94916 -1.852694,0.94916 -0.413085,0 -0.76235,-0.062 -1.324207,-0.22949 -0.416144,-0.12098 -1.418476,-0.4777 -1.95294,-0.69482 -0.680318,-0.27293 -1.287781,-0.41253 -1.93167,-0.43737 -0.300741,-0.009 -0.404048,-0.003 -0.589246,0.0499 z m 0.741076,0.81582 c 0.01516,0.0217 0.501098,1.65648 0.501098,1.68133 0,0.0186 -0.08801,0.0341 -0.200494,0.0403 -0.24902,0.006 -0.634854,0.1396 -0.862601,0.29169 -0.09107,0.062 -0.303796,0.25432 -0.467724,0.42501 -0.164066,0.17368 -0.306722,0.30716 -0.312839,0.30091 -0.02126,-0.0217 -0.525426,-1.68758 -0.525426,-1.73402 0,-0.0527 0.44951,-0.4963 0.656121,-0.65138 0.19438,-0.14271 0.564918,-0.32576 0.744138,-0.36295 0.109285,-0.0218 0.452434,-0.0158 0.467727,0.009 z m 3.705389,1.13845 c 0.185338,0.0466 0.476904,0.11161 0.653066,0.13959 0.176163,0.031 0.322014,0.0558 0.324934,0.0589 0.01821,0.0154 0.522369,1.70618 0.513332,1.71855 -0.05158,0.0497 -1.220902,-0.20478 -1.816267,-0.39705 l -0.203413,-0.0652 -0.136675,-0.4405 c -0.07286,-0.24197 -0.191318,-0.62667 -0.261254,-0.85615 -0.0698,-0.22962 -0.133617,-0.43424 -0.142794,-0.45597 -0.009,-0.0217 0.133617,0.0123 0.361502,0.0869 0.206472,0.065 0.525428,0.16131 0.707569,0.21088 z m -2.484486,0.96478 c 0.164063,0.0527 0.504155,0.17679 0.753172,0.27606 0.252079,0.0961 0.586189,0.22025 0.747196,0.27605 l 0.288506,0.0961 0.318955,1.04842 c 0.200495,0.66074 0.30672,1.04856 0.285448,1.05467 -0.03643,0.009 -0.40085,-0.12099 -1.151104,-0.41252 -0.252078,-0.0993 -0.577012,-0.2079 -0.725921,-0.24823 l -0.273353,-0.0713 -0.315897,-1.03294 c -0.170044,-0.56774 -0.312836,-1.04544 -0.312836,-1.0578 1.57e-4,-0.0433 0.08217,-0.0279 0.385834,0.0714 z m 6.530242,1.60678 0.312838,1.06404 -0.0698,0.062 c -0.431298,0.38469 -1.117734,0.63589 -1.658317,0.60792 l -0.194377,-0.009 -0.315896,-1.04843 c -0.176163,-0.57696 -0.30978,-1.05779 -0.300742,-1.06717 0.0092,-0.009 0.148772,-0.031 0.30672,-0.0435 0.519311,-0.0435 1.056974,-0.2451 1.397203,-0.52116 0.08509,-0.0652 0.166986,-0.11786 0.18228,-0.11474 0.01807,0.004 0.169906,0.48708 0.340089,1.07015 z m -6.442091,0.60494 c 0.0031,0 0.1154,0.37219 0.252078,0.82519 0.136674,0.45285 0.255134,0.8438 0.261252,0.87162 0.01223,0.0404 -0.02726,0.0558 -0.227746,0.0838 -0.537665,0.0776 -0.874693,0.25432 -1.321147,0.69483 l -0.303662,0.30091 -0.252356,-0.82817 c -0.136674,-0.45598 -0.249016,-0.85005 -0.249016,-0.87475 0,-0.0248 0.161005,-0.21713 0.358441,-0.4219 0.312837,-0.33187 0.385695,-0.3908 0.613577,-0.50568 0.27947,-0.13647 0.513333,-0.19227 0.728983,-0.16756 0.07578,0.009 0.139596,0.0185 0.139596,0.0217 z m 3.122257,1.02684 c 0.4313,0.12411 1.035702,0.2512 1.345481,0.2823 l 0.221767,0.0217 0.07898,0.26683 c 0.04255,0.14584 0.161007,0.53038 0.258196,0.8499 0.09719,0.32263 0.179221,0.60182 0.179221,0.62354 0,0.0838 -0.908203,-0.11161 -1.655259,-0.35672 l -0.376657,-0.12099 -0.136675,-0.44361 c -0.07286,-0.24198 -0.185339,-0.60807 -0.249019,-0.8127 -0.06076,-0.20477 -0.118461,-0.3908 -0.127638,-0.41565 -0.01223,-0.0341 -0.003,-0.0404 0.03949,-0.0217 0.03031,0.0122 0.221628,0.0682 0.422122,0.12709 z"
         id="path15931"
         style="stroke-width:2.11667;stroke-dasharray:none" /></g></g></svg>
