<?xml version="1.0" encoding="UTF-8" standalone="no"?>
<!-- Created with Inkscape (http://www.inkscape.org/) -->

<svg
   width="13.987412mm"
   height="18.795593mm"
   viewBox="0 0 13.987412 18.795593"
   version="1.1"
   id="svg5"
   inkscape:version="1.2.1 (9c6d41e410, 2022-07-14)"
   sodipodi:docname="into.svg"
   inkscape:export-filename="symbols 5/dont cut.svg"
   inkscape:export-xdpi="96"
   inkscape:export-ydpi="96"
   xml:space="preserve"
   xmlns:inkscape="http://www.inkscape.org/namespaces/inkscape"
   xmlns:sodipodi="http://sodipodi.sourceforge.net/DTD/sodipodi-0.dtd"
   xmlns="http://www.w3.org/2000/svg"
   xmlns:svg="http://www.w3.org/2000/svg"><sodipodi:namedview
     id="namedview7"
     pagecolor="#ffffff"
     bordercolor="#666666"
     borderopacity="1.0"
     inkscape:showpageshadow="2"
     inkscape:pageopacity="0.0"
     inkscape:pagecheckerboard="0"
     inkscape:deskcolor="#d1d1d1"
     inkscape:document-units="mm"
     showgrid="false"
     inkscape:zoom="0.58295071"
     inkscape:cx="514.62327"
     inkscape:cy="555.79313"
     inkscape:window-width="1920"
     inkscape:window-height="1043"
     inkscape:window-x="0"
     inkscape:window-y="0"
     inkscape:window-maximized="1"
     inkscape:current-layer="layer1"
     inkscape:lockguides="false" /><defs
     id="defs2" /><g
     inkscape:label="Layer 1"
     inkscape:groupmode="layer"
     id="layer1"
     transform="translate(76.689693,-96.179626)"><g
       id="g38144"><path
         id="rect7601-9-9-2-8-6-4-92-6-1-5-5-7-6"
         style="fill:#ffffff;stroke:#000000;stroke-width:2.11667;stroke-linecap:round;stroke-linejoin:round"
         transform="scale(1,-1)"
         d="m -75.631371,-113.91689 h 11.870751 v 16.678929 h -11.870751 z" /><g
         aria-label="&amp;"
         transform="scale(0.91586767,1.0918608)"
         id="text7611-2-6"
         style="font-size:12.7px;line-height:125%;font-family:QTHelvetCnd-Black;-inkscape-font-specification:QTHelvetCnd-Black;letter-spacing:0px;word-spacing:0px;stroke-width:2.11667"><path
           d="m -72.428026,100.89865 -1.1176,-1.549399 c 0.6096,-0.6096 0.9906,-1.7526 0.9906,-2.5908 h -1.8542 c 0,0.3302 -0.1016,0.7366 -0.3048,0.9906 l -0.9398,-1.2954 c 0.762,-0.4572 1.4732,-1.2446 1.4732,-2.1844 0,-1.3716 -1.1684,-1.9304 -2.413,-1.9304 -1.1938,0 -2.4384,0.6096 -2.4384,1.9558 0,0.7366 0.4064,1.3462 0.8636,1.905 -0.9906,0.6096 -1.6002,1.3462 -1.6002,2.54 0,0.635 0.2794,1.346199 0.7874,1.752599 0.5334,0.4572 1.2192,0.5588 1.905,0.5588 0.6858,0 1.4224,-0.254 1.9558,-0.6858 l 0.381,0.5334 z m -3.5306,-6.705599 c 0,0.4318 -0.4064,0.762 -0.6858,1.016 -0.2286,-0.3048 -0.5842,-0.635 -0.5842,-1.0414 0,-0.3556 0.2794,-0.5842 0.6096,-0.5842 0.381,0 0.6604,0.2286 0.6604,0.6096 z m -0.0508,4.8514 c -0.2286,0.2286 -0.508,0.3556 -0.8128,0.3556 -0.508,0 -0.9144,-0.4318 -0.9144,-0.9398 0,-0.4064 0.2794,-0.7112 0.6096,-0.9398 z"
           id="path679" /></g></g></g></svg>
