<?xml version="1.0" encoding="UTF-8" standalone="no"?>
<!-- Created with Inkscape (http://www.inkscape.org/) -->

<svg
   width="22.997437mm"
   height="18.795605mm"
   viewBox="0 0 22.997436 18.795604"
   version="1.1"
   id="svg5"
   inkscape:version="1.2.1 (9c6d41e410, 2022-07-14)"
   sodipodi:docname="out.svg"
   inkscape:export-filename="symbols 5/7 right.svg"
   inkscape:export-xdpi="96"
   inkscape:export-ydpi="96"
   xml:space="preserve"
   xmlns:inkscape="http://www.inkscape.org/namespaces/inkscape"
   xmlns:sodipodi="http://sodipodi.sourceforge.net/DTD/sodipodi-0.dtd"
   xmlns="http://www.w3.org/2000/svg"
   xmlns:svg="http://www.w3.org/2000/svg"><sodipodi:namedview
     id="namedview7"
     pagecolor="#ffffff"
     bordercolor="#666666"
     borderopacity="1.0"
     inkscape:showpageshadow="2"
     inkscape:pageopacity="0.0"
     inkscape:pagecheckerboard="0"
     inkscape:deskcolor="#d1d1d1"
     inkscape:document-units="mm"
     showgrid="false"
     inkscape:zoom="0.8244168"
     inkscape:cx="590.72062"
     inkscape:cy="458.50594"
     inkscape:window-width="1920"
     inkscape:window-height="1043"
     inkscape:window-x="0"
     inkscape:window-y="0"
     inkscape:window-maximized="1"
     inkscape:current-layer="layer1"
     inkscape:lockguides="false" /><defs
     id="defs2" /><g
     inkscape:label="Layer 1"
     inkscape:groupmode="layer"
     id="layer1"
     transform="translate(182.7525,71.158097)"><path
       id="rect7601-9-9-2-8-4-4-9-7-20"
       style="fill:#ffffff;stroke:#000000;stroke-width:2.11667;stroke-linecap:round;stroke-linejoin:round"
       transform="scale(-1,1)"
       d="m 160.8134,-70.099762 h 20.88077 v 16.678936 H 160.8134 Z" /><g
       aria-label="OUT"
       transform="scale(0.91586767,1.0918608)"
       id="text7611-2-6-0-2-61"
       style="font-size:11.2889px;line-height:125%;font-family:QTHelvetCnd-Black;-inkscape-font-specification:QTHelvetCnd-Black;letter-spacing:0px;word-spacing:0px;stroke-width:2.11667"><path
         d="m -190.08975,-56.552969 c 0,-2.099735 -0.0451,-3.951115 -2.68676,-3.951115 -2.61902,0 -2.68675,1.85138 -2.68675,3.951115 0,2.05458 0.13546,3.928538 2.70933,3.928538 2.6416,0 2.66418,-1.873958 2.66418,-3.928538 z m -2.032,0 c 0,1.761069 0,2.619025 -0.63218,2.619025 -0.65475,0 -0.67733,-0.92569 -0.67733,-2.619025 0,-0.2032 -0.0226,-0.428978 -0.0226,-0.632178 0,-1.083734 0.0903,-1.964269 0.67733,-1.964269 0.58703,0 0.65476,0.948268 0.65476,2.009425 z"
         id="path2600" /><path
         d="m -184.15178,-55.469234 v -4.876805 h -1.98684 v 5.463828 c 0,0.428978 -0.0677,0.948267 -0.58703,0.948267 -0.51929,0 -0.56444,-0.541867 -0.56444,-0.993423 v -5.418672 h -1.98685 v 4.763916 c 0,1.964268 0.45156,2.957692 2.57387,2.957692 0.88053,0 1.76107,-0.248356 2.2352,-1.061157 0.29351,-0.541867 0.31609,-1.174046 0.31609,-1.783646 z"
         id="path2602" /><path
         d="m -178.50734,-58.69786 v -1.648179 h -4.96711 v 1.648179 h 1.51271 v 5.892806 h 1.96427 v -5.892806 z"
         id="path2604" /></g></g></svg>
