<?xml version="1.0" encoding="UTF-8" standalone="no"?>
<!-- Created with Inkscape (http://www.inkscape.org/) -->

<svg
   width="32.82444mm"
   height="18.795593mm"
   viewBox="0 0 32.824439 18.795593"
   version="1.1"
   id="svg5"
   inkscape:version="1.2.1 (9c6d41e410, 2022-07-14)"
   sodipodi:docname="short.svg"
   inkscape:export-filename="symbols 5/dont cut.svg"
   inkscape:export-xdpi="96"
   inkscape:export-ydpi="96"
   xml:space="preserve"
   xmlns:inkscape="http://www.inkscape.org/namespaces/inkscape"
   xmlns:sodipodi="http://sodipodi.sourceforge.net/DTD/sodipodi-0.dtd"
   xmlns="http://www.w3.org/2000/svg"
   xmlns:svg="http://www.w3.org/2000/svg"><sodipodi:namedview
     id="namedview7"
     pagecolor="#ffffff"
     bordercolor="#666666"
     borderopacity="1.0"
     inkscape:showpageshadow="2"
     inkscape:pageopacity="0.0"
     inkscape:pagecheckerboard="0"
     inkscape:deskcolor="#d1d1d1"
     inkscape:document-units="mm"
     showgrid="false"
     inkscape:zoom="0.58295071"
     inkscape:cx="514.62327"
     inkscape:cy="555.79313"
     inkscape:window-width="1920"
     inkscape:window-height="1043"
     inkscape:window-x="0"
     inkscape:window-y="0"
     inkscape:window-maximized="1"
     inkscape:current-layer="layer1"
     inkscape:lockguides="false" /><defs
     id="defs2" /><g
     inkscape:label="Layer 1"
     inkscape:groupmode="layer"
     id="layer1"
     transform="translate(216.98283,32.06906)"><g
       id="g24592"
       transform="translate(-15.054748,-86.717325)"><path
         id="rect7601-9-9-2-8-4-4-9-7-1-1"
         style="fill:#ffffff;stroke:#000000;stroke-width:2.11667;stroke-linecap:round;stroke-linejoin:round"
         transform="scale(-1,1)"
         d="m 170.16197,55.7066 h 30.70777 v 16.678929 h -30.70777 z" /><g
         aria-label="SHORT"
         transform="scale(0.91586767,1.0918608)"
         id="text7611-2-6-0-2-0-7"
         style="font-size:11.2889px;line-height:125%;font-family:QTHelvetCnd-Black;-inkscape-font-specification:QTHelvetCnd-Black;letter-spacing:0px;word-spacing:0px;stroke-width:2.11667"><path
           d="m -211.85955,60.226877 c 0,-2.709336 -3.18347,-2.05458 -3.18347,-3.522137 0,-0.361245 0.2032,-0.632178 0.58702,-0.632178 0.49671,0 0.54187,0.564445 0.54187,0.948267 h 1.87396 c 0,-1.648179 -0.88054,-2.280358 -2.43841,-2.280358 -1.44498,0 -2.50613,0.654756 -2.50613,2.212625 0,2.889958 3.13831,1.964268 3.13831,3.58987 0,0.4064 -0.24835,0.72249 -0.67733,0.72249 -0.6096,0 -0.63218,-0.677334 -0.63218,-1.12889 h -1.87396 c 0,0.04516 -0.0226,0.09031 -0.0226,0.112889 0,1.761068 0.83538,2.348091 2.52872,2.348091 1.64818,0 2.66418,-0.609601 2.66418,-2.370669 z"
           id="path2169" /><path
           d="m -205.94418,62.416924 v -7.540986 h -1.98684 v 2.77707 h -1.15147 v -2.77707 h -1.98685 v 7.540986 h 1.98685 v -3.115737 h 1.15147 v 3.115737 z"
           id="path2171" /><path
           d="m -199.66754,58.669009 c 0,-2.099736 -0.0452,-3.951116 -2.68676,-3.951116 -2.61903,0 -2.68676,1.85138 -2.68676,3.951116 0,2.054579 0.13547,3.928537 2.70934,3.928537 2.6416,0 2.66418,-1.873958 2.66418,-3.928537 z m -2.032,0 c 0,1.761068 0,2.619024 -0.63218,2.619024 -0.65476,0 -0.67734,-0.925689 -0.67734,-2.619024 0,-0.203201 -0.0226,-0.428979 -0.0226,-0.632179 0,-1.083734 0.0903,-1.964268 0.67733,-1.964268 0.58702,0 0.65476,0.948267 0.65476,2.009424 z"
           id="path2173" /><path
           d="m -193.32317,62.416924 v -0.112889 c -0.27094,-0.112889 -0.29351,-0.496712 -0.29351,-0.835379 0,-0.293512 -0.0226,-0.587023 -0.0226,-0.880534 -0.0226,-0.970846 -0.11289,-1.761069 -1.24178,-1.896536 0.94827,-0.2032 1.28693,-0.8128 1.28693,-1.761068 0,-1.693335 -0.94826,-2.05458 -2.41582,-2.05458 h -2.73192 v 7.540986 h 1.98685 V 59.36892 c 1.24178,0 1.12889,0.31609 1.15147,1.354668 l 0.0226,0.609601 c 0,0.338667 0,0.767645 0.15804,1.083735 z m -2.23521,-5.260628 c 0,0.812801 -0.51929,0.880534 -1.19662,0.880534 v -1.761068 c 0.72249,0 1.19662,0.02258 1.19662,0.880534 z"
           id="path2175" /><path
           d="m -188.06254,56.524118 v -1.64818 h -4.96712 v 1.64818 h 1.51271 v 5.892806 h 1.96427 v -5.892806 z"
           id="path2177" /></g></g></g></svg>
