<?xml version="1.0" encoding="UTF-8" standalone="no"?>
<!-- Created with Inkscape (http://www.inkscape.org/) -->

<svg
   width="19.172653mm"
   height="18.795609mm"
   viewBox="0 0 19.172653 18.795608"
   version="1.1"
   id="svg5"
   inkscape:version="1.2.1 (9c6d41e410, 2022-07-14)"
   sodipodi:docname="arrows.svg"
   inkscape:export-filename="symbols 5/dont cut.svg"
   inkscape:export-xdpi="96"
   inkscape:export-ydpi="96"
   xml:space="preserve"
   xmlns:inkscape="http://www.inkscape.org/namespaces/inkscape"
   xmlns:sodipodi="http://sodipodi.sourceforge.net/DTD/sodipodi-0.dtd"
   xmlns="http://www.w3.org/2000/svg"
   xmlns:svg="http://www.w3.org/2000/svg"><sodipodi:namedview
     id="namedview7"
     pagecolor="#ffffff"
     bordercolor="#666666"
     borderopacity="1.0"
     inkscape:showpageshadow="2"
     inkscape:pageopacity="0.0"
     inkscape:pagecheckerboard="0"
     inkscape:deskcolor="#d1d1d1"
     inkscape:document-units="mm"
     showgrid="false"
     inkscape:zoom="0.58295071"
     inkscape:cx="608.11316"
     inkscape:cy="555.79313"
     inkscape:window-width="1920"
     inkscape:window-height="1043"
     inkscape:window-x="0"
     inkscape:window-y="0"
     inkscape:window-maximized="1"
     inkscape:current-layer="layer1"
     inkscape:lockguides="false" /><defs
     id="defs2" /><g
     inkscape:label="Layer 1"
     inkscape:groupmode="layer"
     id="layer1"
     transform="translate(171.64072,-55.43527)"><g
       id="g35497"
       transform="translate(-35.708622,-84.631499)"><rect
         style="fill:#ffff00;fill-opacity:1;stroke:#000000;stroke-width:2.11667;stroke-linecap:round;stroke-linejoin:round;stroke-dasharray:none;paint-order:normal"
         id="rect7601-9-9-2-8-6-4-92-6-1-5-4"
         width="17.055986"
         height="16.678934"
         x="117.81778"
         y="-157.80403"
         transform="scale(-1)" /><g
         id="g34427"
         transform="matrix(0.01393307,0,0,0.01393307,-133.31231,142.49804)"
         style="stroke-width:151.917;stroke-dasharray:none"><g
           id="g34395"
           style="stroke-width:151.917;stroke-dasharray:none"><path
             d="M 976.9,477.4 C 878.6,307.5 695.9,202 500,202 304.1,202 121.4,307.5 23.1,477.4 L 10,500 23.1,522.6 C 121.4,692.5 304.1,798 500,798 695.9,798 878.6,692.5 976.9,522.6 L 990,500 Z M 115.1,500 c 41.6,-63.1 97.7,-114.1 162.2,-149.9 -23.7,39.7 -37.5,85.8 -37.5,135.3 0,70.6 27.9,134.6 73,182.2 C 233.3,632 164.1,574.4 115.1,500 Z M 504.9,310.6 c 36.7,0 70.8,11.4 99,30.9 l -243,242.9 C 341.5,556.2 330,522.2 330,485.4 330.1,389 408.5,310.6 504.9,310.6 Z m 0,349.6 c -26.9,0 -52.3,-6.3 -75.1,-17.2 L 662.5,410.3 c 10.9,22.8 17.2,48.2 17.2,75.1 0,96.4 -78.4,174.8 -174.8,174.8 z m 199.5,-0.8 C 745.1,612.8 770,552 770,485.4 770,439.6 758.3,396.5 737.8,358.9 796,394 846.6,441.9 884.9,500 839.4,569 776.6,623.5 704.4,659.4 Z"
             id="path34393"
             style="stroke-width:151.917;stroke-dasharray:none" /></g><g
           id="g34397"
           style="stroke-width:151.917;stroke-dasharray:none" /><g
           id="g34399"
           style="stroke-width:151.917;stroke-dasharray:none" /><g
           id="g34401"
           style="stroke-width:151.917;stroke-dasharray:none" /><g
           id="g34403"
           style="stroke-width:151.917;stroke-dasharray:none" /><g
           id="g34405"
           style="stroke-width:151.917;stroke-dasharray:none" /><g
           id="g34407"
           style="stroke-width:151.917;stroke-dasharray:none" /><g
           id="g34409"
           style="stroke-width:151.917;stroke-dasharray:none" /><g
           id="g34411"
           style="stroke-width:151.917;stroke-dasharray:none" /><g
           id="g34413"
           style="stroke-width:151.917;stroke-dasharray:none" /><g
           id="g34415"
           style="stroke-width:151.917;stroke-dasharray:none" /><g
           id="g34417"
           style="stroke-width:151.917;stroke-dasharray:none" /><g
           id="g34419"
           style="stroke-width:151.917;stroke-dasharray:none" /><g
           id="g34421"
           style="stroke-width:151.917;stroke-dasharray:none" /><g
           id="g34423"
           style="stroke-width:151.917;stroke-dasharray:none" /><g
           id="g34425"
           style="stroke-width:151.917;stroke-dasharray:none" /></g></g></g></svg>
