<?xml version="1.0" encoding="UTF-8" standalone="no"?>
<!-- Created with Inkscape (http://www.inkscape.org/) -->

<svg
   width="19.172653mm"
   height="18.795593mm"
   viewBox="0 0 19.172653 18.795593"
   version="1.1"
   id="svg5"
   inkscape:version="1.2.1 (9c6d41e410, 2022-07-14)"
   sodipodi:docname="arrows.svg"
   inkscape:export-filename="symbols 5/dont cut.svg"
   inkscape:export-xdpi="96"
   inkscape:export-ydpi="96"
   xml:space="preserve"
   xmlns:inkscape="http://www.inkscape.org/namespaces/inkscape"
   xmlns:sodipodi="http://sodipodi.sourceforge.net/DTD/sodipodi-0.dtd"
   xmlns="http://www.w3.org/2000/svg"
   xmlns:svg="http://www.w3.org/2000/svg"><sodipodi:namedview
     id="namedview7"
     pagecolor="#ffffff"
     bordercolor="#666666"
     borderopacity="1.0"
     inkscape:showpageshadow="2"
     inkscape:pageopacity="0.0"
     inkscape:pagecheckerboard="0"
     inkscape:deskcolor="#d1d1d1"
     inkscape:document-units="mm"
     showgrid="false"
     inkscape:zoom="0.58295071"
     inkscape:cx="608.11316"
     inkscape:cy="555.79313"
     inkscape:window-width="1920"
     inkscape:window-height="1043"
     inkscape:window-x="0"
     inkscape:window-y="0"
     inkscape:window-maximized="1"
     inkscape:current-layer="layer1"
     inkscape:lockguides="false" /><defs
     id="defs2" /><g
     inkscape:label="Layer 1"
     inkscape:groupmode="layer"
     id="layer1"
     transform="translate(198.58385,-96.763138)"><g
       id="g39042"
       transform="translate(-122.76566,-26.183589)"><rect
         style="fill:#ffffff;fill-opacity:1;stroke:#000000;stroke-width:2.11667;stroke-linecap:round;stroke-linejoin:round;stroke-dasharray:none;paint-order:normal"
         id="rect7601-9-9-2-8-6-8"
         width="17.055986"
         height="16.678934"
         x="57.703873"
         y="124.00506"
         transform="scale(-1,1)" /><g
         id="g31850"
         transform="matrix(0.01108263,0,0,0.01606346,-71.571772,125.65601)"
         style="fill:#0000ff;stroke-width:158.64;stroke-dasharray:none"><g
           id="g31818"
           style="fill:#0000ff;stroke-width:158.64;stroke-dasharray:none"><path
             d="m 23.2,471.5 v 0 c 0,-0.3 0,-0.6 0,-0.9 0.5,-6.7 6.3,-11.7 13,-11.3 0,0 0.1,0 0.1,0 0,0 0.1,0 0.1,0 3.4,0.2 69.6,3.7 100.9,-25.5 10.7,-10 15.9,-22.6 15.9,-38.5 0,-6.7 5.4,-12.2 12.2,-12.2 0,0 0,0 0,0 6.7,0 12.2,5.5 12.2,12.2 0,15.9 5.2,28.5 15.9,38.5 24.8,23.2 71.4,25.8 91.5,25.8 22.5,-0.6 61.3,-4.7 83.3,-25.1 10.9,-10.1 16.2,-22.9 16.2,-39.2 0,-6.7 5.5,-12.2 12.2,-12.2 6.7,0 12.2,5.5 12.2,12.2 0,15.9 5.2,28.5 15.9,38.5 23.1,21.6 65,25.3 86.9,25.7 22.7,-0.7 60.4,-5.1 82,-25 10.9,-10.1 16.2,-22.9 16.2,-39.2 0,-6.7 5.5,-12.2 12.2,-12.2 6.7,0 12.2,5.5 12.2,12.2 0,15.9 5.2,28.5 15.9,38.5 23.2,21.7 65.6,25.4 87.3,25.7 22.6,-0.7 60.5,-5 82.1,-25 10.9,-10.1 16.2,-22.9 16.2,-39.2 0,-6.7 5.5,-12.2 12.2,-12.2 6.8,0 12.2,5.5 12.2,12.2 0,15.9 5.2,28.5 15.9,38.5 32,29.9 100.4,25.6 101.1,25.5 6.7,-0.4 12.5,4.6 13,11.3 0.5,6.7 -4.6,12.5 -11.3,13 -3.2,0.2 -79.5,5.1 -119.3,-32 -4.4,-4.1 -8.2,-8.5 -11.4,-13.3 -9.1,13.9 -23.2,25 -42.1,32.7 -16.3,6.7 -34,10 -49.1,11.5 -1.2,0.5 -2.5,0.9 -3.9,1 -0.8,0.1 -6.7,0.4 -15.5,0.3 -2.6,0.1 -5,0.1 -7.1,0.1 -7,0 -13.2,0 -17.6,-1.7 -25.5,-2.9 -57.7,-10.7 -79.1,-30.7 -4.4,-4.1 -8.2,-8.5 -11.4,-13.3 -9.1,13.9 -23.2,25 -42.1,32.7 -16,6.5 -33.4,9.8 -48.3,11.5 -1.3,0.6 -2.7,1 -4.2,1.1 -0.8,0.1 -6.8,0.5 -15.9,0.3 -2.7,0.1 -5.1,0.1 -7.3,0.1 -7.1,0 -13.3,-0.1 -17.8,-1.8 -25.4,-3 -57.1,-10.8 -78.4,-30.6 -4.4,-4.1 -8.2,-8.5 -11.4,-13.3 -9.1,13.9 -23.2,25 -42.1,32.7 -18.9,7.8 -39.8,11 -56.3,12.2 -0.6,0.2 -1.3,0.3 -2,0.3 -0.3,0 -1.5,0.1 -3.3,0.2 -3,0.2 -6.4,0.3 -10,0.3 -0.6,0 -1.4,0 -2.1,0 -0.7,0 -1.4,0 -2,0 -5,0 -9.5,0 -13.4,-0.6 -16.8,-1.2 -38.5,-4.3 -58.1,-12.4 -18.8,-7.7 -32.9,-18.7 -42,-32.6 -9.1,13.9 -23.2,24.8 -42,32.6 -27.5,11.3 -59.2,13 -75.6,13 -3.6,0 -6.9,0 -9.9,-0.3 -1.8,-0.1 -2.9,-0.1 -3.3,-0.2 -2,-0.1 -3.9,-0.8 -5.5,-1.8 -3,-1.4 -4.9,-3.9 -5.5,-7.9 -0.1,-0.6 -0.2,-1.2 -0.2,-1.8 -0.5,0 -0.5,-0.1 -0.5,-0.4 z m 940.7,120.6 c -0.7,0.1 -69.1,4.4 -101.1,-25.5 -10.7,-10 -15.9,-22.6 -15.9,-38.5 0,-6.7 -5.4,-12.2 -12.2,-12.2 -6.7,0 -12.2,5.4 -12.2,12.2 0,16.3 -5.3,29.1 -16.2,39.2 -21.6,20 -59.5,24.4 -82.1,25.1 -21.8,-0.4 -64.1,-4.1 -87.3,-25.7 -10.7,-10 -15.9,-22.6 -15.9,-38.5 0,-6.7 -5.5,-12.2 -12.2,-12.2 -6.7,0 -12.2,5.4 -12.2,12.2 0,16.3 -5.3,29.1 -16.2,39.2 -21.6,20 -59.3,24.3 -82,25 -21.9,-0.4 -63.9,-4.2 -86.9,-25.7 -10.7,-10 -15.9,-22.6 -15.9,-38.5 0,-6.7 -5.5,-12.2 -12.2,-12.2 -6.7,0 -12.2,5.4 -12.2,12.2 0,16.3 -5.3,29.1 -16.2,39.2 -22,20.4 -60.8,24.5 -83.3,25.1 -20.1,0 -66.7,-2.6 -91.5,-25.8 -10.7,-10 -15.9,-22.6 -15.9,-38.5 0,-6.7 -5.5,-12.2 -12.2,-12.2 0,0 0,0 0,0 -6.7,0 -12.2,5.4 -12.2,12.2 0,15.9 -5.2,28.5 -15.9,38.5 -31.3,29.2 -97.4,25.7 -100.9,25.5 0,0 -0.1,0 -0.1,0 0,0 -0.1,0 -0.1,0 -6.7,-0.4 -12.5,4.6 -13,11.3 0,0.3 0,0.6 0,0.8 H 10 c 0,0.2 0.1,0.4 0.1,0.6 0,0.6 0.1,1.2 0.2,1.8 0.6,4 2.5,6.5 5.5,7.9 1.6,1 3.5,1.7 5.5,1.8 0.3,0 1.5,0.1 3.3,0.2 3,0.2 6.4,0.2 9.9,0.2 16.4,0 48.1,-1.7 75.6,-13 18.8,-7.7 32.9,-18.7 42,-32.6 9.1,13.9 23.2,24.9 42,32.6 19.6,8 41.3,11.2 58.1,12.4 3.8,0.6 8.4,0.6 13.4,0.6 0.7,0 1.4,0 2.1,0 0.7,0 1.4,0 2.1,0 3.6,0 6.9,0 10,-0.2 1.8,-0.1 2.9,-0.1 3.3,-0.2 0.7,-0.1 1.3,-0.2 2,-0.3 16.5,-1.3 37.4,-4.5 56.3,-12.3 18.9,-7.8 33,-18.8 42.2,-32.7 3.2,4.8 7,9.2 11.4,13.3 21.3,19.9 53,27.7 78.4,30.6 4.4,1.7 10.7,1.8 17.8,1.8 2.2,0 4.6,0 7.3,-0.1 9,0.1 15,-0.2 15.9,-0.3 1.5,-0.1 2.9,-0.5 4.2,-1.1 15,-1.6 32.3,-4.9 48.3,-11.5 18.9,-7.8 33,-18.8 42.1,-32.7 3.2,4.8 7,9.2 11.4,13.3 21.5,20 53.6,27.8 79.2,30.7 4.4,1.7 10.6,1.7 17.6,1.7 2.1,0 4.5,0 7.1,-0.1 8.8,0.1 14.6,-0.2 15.4,-0.3 1.4,-0.1 2.7,-0.5 3.9,-1 15.2,-1.6 32.9,-4.9 49.1,-11.6 18.9,-7.8 33,-18.8 42.1,-32.7 3.2,4.8 7,9.2 11.4,13.3 39.8,37.1 116.1,32.2 119.4,32 6.7,-0.5 11.8,-6.3 11.3,-13 -0.5,-6.7 -6.3,-11.6 -13,-11.3 z"
             id="path31816"
             style="fill:#0000ff;stroke-width:158.64;stroke-dasharray:none" /></g><g
           id="g31820"
           style="fill:#0000ff;stroke-width:158.64;stroke-dasharray:none" /><g
           id="g31822"
           style="fill:#0000ff;stroke-width:158.64;stroke-dasharray:none" /><g
           id="g31824"
           style="fill:#0000ff;stroke-width:158.64;stroke-dasharray:none" /><g
           id="g31826"
           style="fill:#0000ff;stroke-width:158.64;stroke-dasharray:none" /><g
           id="g31828"
           style="fill:#0000ff;stroke-width:158.64;stroke-dasharray:none" /><g
           id="g31830"
           style="fill:#0000ff;stroke-width:158.64;stroke-dasharray:none" /><g
           id="g31832"
           style="fill:#0000ff;stroke-width:158.64;stroke-dasharray:none" /><g
           id="g31834"
           style="fill:#0000ff;stroke-width:158.64;stroke-dasharray:none" /><g
           id="g31836"
           style="fill:#0000ff;stroke-width:158.64;stroke-dasharray:none" /><g
           id="g31838"
           style="fill:#0000ff;stroke-width:158.64;stroke-dasharray:none" /><g
           id="g31840"
           style="fill:#0000ff;stroke-width:158.64;stroke-dasharray:none" /><g
           id="g31842"
           style="fill:#0000ff;stroke-width:158.64;stroke-dasharray:none" /><g
           id="g31844"
           style="fill:#0000ff;stroke-width:158.64;stroke-dasharray:none" /><g
           id="g31846"
           style="fill:#0000ff;stroke-width:158.64;stroke-dasharray:none" /><g
           id="g31848"
           style="fill:#0000ff;stroke-width:158.64;stroke-dasharray:none" /></g><path
         style="fill:#00ffff;fill-rule:evenodd;stroke:#000000;stroke-width:2.11667;stroke-linecap:round;stroke-linejoin:miter;stroke-dasharray:none;stroke-opacity:1"
         d="m -74.433404,129.83468 c 4.314508,11.38409 15.927216,7.08239 16.578062,0.6483"
         id="path18301-0"
         sodipodi:nodetypes="cc" /></g></g></svg>
