<?xml version="1.0" encoding="UTF-8" standalone="no"?>
<!-- Created with Inkscape (http://www.inkscape.org/) -->

<svg
   width="19.196438mm"
   height="18.772034mm"
   viewBox="0 0 19.196437 18.772033"
   version="1.1"
   id="svg5"
   inkscape:version="1.2.2 (b0a8486541, 2022-12-01)"
   sodipodi:docname="all_symbols.svg.2023_03_14_19_33_14.0.svg"
   inkscape:export-filename="symbols 5/7 right.svg"
   inkscape:export-xdpi="96"
   inkscape:export-ydpi="96"
   xml:space="preserve"
   xmlns:inkscape="http://www.inkscape.org/namespaces/inkscape"
   xmlns:sodipodi="http://sodipodi.sourceforge.net/DTD/sodipodi-0.dtd"
   xmlns="http://www.w3.org/2000/svg"
   xmlns:svg="http://www.w3.org/2000/svg"><sodipodi:namedview
     id="namedview7"
     pagecolor="#ffffff"
     bordercolor="#666666"
     borderopacity="1.0"
     inkscape:showpageshadow="2"
     inkscape:pageopacity="0.0"
     inkscape:pagecheckerboard="0"
     inkscape:deskcolor="#d1d1d1"
     inkscape:document-units="mm"
     showgrid="false"
     inkscape:zoom="0.47757151"
     inkscape:cx="365.39031"
     inkscape:cy="1739.0066"
     inkscape:window-width="1280"
     inkscape:window-height="739"
     inkscape:window-x="0"
     inkscape:window-y="0"
     inkscape:window-maximized="1"
     inkscape:current-layer="layer1"
     inkscape:lockguides="false" /><defs
     id="defs2"><marker
       style="overflow:visible"
       id="TriangleStart-3-3-6-8-7"
       refX="0"
       refY="0"
       orient="auto-start-reverse"
       inkscape:stockid="TriangleStart"
       markerWidth="2.3239999"
       markerHeight="2.6867051"
       viewBox="0 0 5.3244081 6.1553851"
       inkscape:isstock="true"
       inkscape:collect="always"
       preserveAspectRatio="xMidYMid"><path
         transform="scale(0.5)"
         style="fill:context-stroke;fill-rule:evenodd;stroke:context-stroke;stroke-width:1pt"
         d="M 5.77,0 -2.88,5 V -5 Z"
         id="path135-6-6-1-9-7" /></marker></defs><g
     inkscape:label="Layer 1"
     inkscape:groupmode="layer"
     id="layer1"
     transform="translate(180.05773,-346.61496)"><g
       id="g8699-0-7-1"
       transform="matrix(1.022116,0,0,0.99951995,-191.61195,316.27406)"
       style="stroke-width:2.09414;stroke-dasharray:none"
       inkscape:export-filename="../../../../BNG-rallymode/art/symbols/2 right.svg"
       inkscape:export-xdpi="96"
       inkscape:export-ydpi="96"><path
         id="rect234-7-7-4-1-2"
         style="fill:#ffb200;stroke:#000000;stroke-linecap:round;stroke-linejoin:round"
         d="M 12.351288,31.402514 H 29.038225 V 48.089458 H 12.351288 Z" /><path
         style="fill:none;fill-rule:evenodd;stroke:#000000;stroke-width:2.09414;stroke-linecap:butt;stroke-linejoin:miter;stroke-dasharray:none;stroke-opacity:1;marker-end:url(#TriangleStart-3-3-6-8-7)"
         d="m 17.988499,47.565658 c -3.337482,-7.543698 1.150226,-9.968937 5.779842,-9.996671"
         id="path1112-5-5-22-1-8"
         sodipodi:nodetypes="cc" /><path
         id="rect7609-2-5-9"
         style="fill:#ffb200;stroke:#000000;stroke-linecap:round;stroke-linejoin:round"
         d="M 12.351288,31.402514 H 29.038225 V 48.089458 H 12.351288 Z" /><path
         style="fill:none;fill-rule:evenodd;stroke:#000000;stroke-width:2.09414;stroke-linecap:butt;stroke-linejoin:miter;stroke-dasharray:none;stroke-opacity:1;marker-end:url(#TriangleStart-3-3-6-8-7)"
         d="m 17.988499,47.565658 c -3.337482,-7.543698 1.150226,-9.968937 5.779842,-9.996671"
         id="path7611-0-9-3"
         sodipodi:nodetypes="cc" /></g><g
       aria-label="2"
       id="text2962-6-1-8-7-1-3-2"
       style="font-size:6.35px;line-height:1.25;stroke-width:0.264583"><path
         d="m -165.86042,361.52362 h -3.16865 v -0.66675 l 1.13665,-1.14935 q 0.3429,-0.3556 0.55245,-0.59055 0.20955,-0.2413 0.3048,-0.4318 0.0952,-0.19685 0.0952,-0.4191 0,-0.27305 -0.1524,-0.4064 -0.14605,-0.13335 -0.40005,-0.13335 -0.26035,0 -0.508,0.12065 -0.24765,0.12065 -0.5207,0.3429 l -0.5207,-0.61595 q 0.19685,-0.17145 0.41275,-0.3175 0.22225,-0.14605 0.508,-0.23495 0.2921,-0.0953 0.6985,-0.0953 0.4445,0 0.762,0.1651 0.32385,0.15875 0.4953,0.43815 0.1778,0.27305 0.1778,0.6223 0,0.28575 -0.0889,0.52705 -0.0825,0.2413 -0.24765,0.4699 -0.15875,0.22225 -0.3937,0.46355 -0.23495,0.23495 -0.5334,0.51435 l -0.5842,0.5461 v 0.0444 h 1.97485 z"
         style="font-weight:bold"
         id="path33164" /></g><g
       id="g1399"
       transform="matrix(1.022116,0,0,0.99951995,-191.61195,316.27406)"
       style="stroke-width:2.09414;stroke-dasharray:none"><path
         id="path1391"
         style="fill:#ffb200;stroke:#000000;stroke-linecap:round;stroke-linejoin:round"
         d="M 12.351288,31.402514 H 29.038225 V 48.089458 H 12.351288 Z" /><path
         style="fill:none;fill-rule:evenodd;stroke:#000000;stroke-width:2.09414;stroke-linecap:butt;stroke-linejoin:miter;stroke-dasharray:none;stroke-opacity:1;marker-end:url(#TriangleStart-3-3-6-8-7)"
         d="m 17.988499,47.565658 c -3.337482,-7.543698 1.150226,-9.968937 5.779842,-9.996671"
         id="path1393"
         sodipodi:nodetypes="cc" /><path
         id="path1395"
         style="fill:#ffb200;stroke:#000000;stroke-linecap:round;stroke-linejoin:round"
         d="M 12.351288,31.402514 H 29.038225 V 48.089458 H 12.351288 Z" /><path
         style="fill:none;fill-rule:evenodd;stroke:#000000;stroke-width:2.09414;stroke-linecap:butt;stroke-linejoin:miter;stroke-dasharray:none;stroke-opacity:1;marker-end:url(#TriangleStart-3-3-6-8-7)"
         d="m 17.988499,47.565658 c -3.337482,-7.543698 1.150226,-9.968937 5.779842,-9.996671"
         id="path1397"
         sodipodi:nodetypes="cc" /></g><g
       aria-label="2"
       id="text1469"
       style="font-size:6.35px;line-height:1.25;stroke-width:0.264583"><path
         d="m -165.86042,361.52362 h -3.16865 v -0.66675 l 1.13665,-1.14935 q 0.3429,-0.3556 0.55245,-0.59055 0.20955,-0.2413 0.3048,-0.4318 0.0952,-0.19685 0.0952,-0.4191 0,-0.27305 -0.1524,-0.4064 -0.14605,-0.13335 -0.40005,-0.13335 -0.26035,0 -0.508,0.12065 -0.24765,0.12065 -0.5207,0.3429 l -0.5207,-0.61595 q 0.19685,-0.17145 0.41275,-0.3175 0.22225,-0.14605 0.508,-0.23495 0.2921,-0.0953 0.6985,-0.0953 0.4445,0 0.762,0.1651 0.32385,0.15875 0.4953,0.43815 0.1778,0.27305 0.1778,0.6223 0,0.28575 -0.0889,0.52705 -0.0825,0.2413 -0.24765,0.4699 -0.15875,0.22225 -0.3937,0.46355 -0.23495,0.23495 -0.5334,0.51435 l -0.5842,0.5461 v 0.0444 h 1.97485 z"
         style="font-weight:bold"
         id="path33210" /></g></g></svg>
