<?xml version="1.0" encoding="UTF-8" standalone="no"?>
<!-- Created with Inkscape (http://www.inkscape.org/) -->

<svg
   width="19.196438mm"
   height="18.772034mm"
   viewBox="0 0 19.196437 18.772033"
   version="1.1"
   id="svg5"
   inkscape:version="1.2.2 (b0a8486541, 2022-12-01)"
   sodipodi:docname="all_symbols.svg.2023_03_14_19_33_14.0.svg"
   inkscape:export-filename="symbols 5/7 right.svg"
   inkscape:export-xdpi="96"
   inkscape:export-ydpi="96"
   xml:space="preserve"
   xmlns:inkscape="http://www.inkscape.org/namespaces/inkscape"
   xmlns:sodipodi="http://sodipodi.sourceforge.net/DTD/sodipodi-0.dtd"
   xmlns="http://www.w3.org/2000/svg"
   xmlns:svg="http://www.w3.org/2000/svg"><sodipodi:namedview
     id="namedview7"
     pagecolor="#ffffff"
     bordercolor="#666666"
     borderopacity="1.0"
     inkscape:showpageshadow="2"
     inkscape:pageopacity="0.0"
     inkscape:pagecheckerboard="0"
     inkscape:deskcolor="#d1d1d1"
     inkscape:document-units="mm"
     showgrid="false"
     inkscape:zoom="0.47757151"
     inkscape:cx="365.39031"
     inkscape:cy="1739.0066"
     inkscape:window-width="1280"
     inkscape:window-height="739"
     inkscape:window-x="0"
     inkscape:window-y="0"
     inkscape:window-maximized="1"
     inkscape:current-layer="layer1"
     inkscape:lockguides="false" /><defs
     id="defs2"><marker
       style="overflow:visible"
       id="TriangleStart-3-3-3-3-7-6"
       refX="0"
       refY="0"
       orient="auto-start-reverse"
       inkscape:stockid="TriangleStart"
       markerWidth="2.3239999"
       markerHeight="2.6867051"
       viewBox="0 0 5.3244081 6.1553851"
       inkscape:isstock="true"
       inkscape:collect="always"
       preserveAspectRatio="xMidYMid"><path
         transform="scale(0.5)"
         style="fill:context-stroke;fill-rule:evenodd;stroke:context-stroke;stroke-width:1pt"
         d="M 5.77,0 -2.88,5 V -5 Z"
         id="path135-6-6-5-2-3-4" /></marker></defs><g
     inkscape:label="Layer 1"
     inkscape:groupmode="layer"
     id="layer1"
     transform="translate(180.05773,-368.61529)"><g
       id="g8767-5-7-6"
       transform="matrix(1.022116,0,0,0.99951995,-191.79227,318.20812)"
       style="fill:#f7fb3e;fill-opacity:1;stroke-width:2.09414;stroke-dasharray:none"
       inkscape:export-filename="../../../../BNG-rallymode/art/symbols/3 right.svg"
       inkscape:export-xdpi="96"
       inkscape:export-ydpi="96"><path
         id="rect234-7-7-6-5-7-8"
         style="stroke:#000000;stroke-linecap:round;stroke-linejoin:round"
         d="M 12.5277,51.478424 H 29.214638 V 68.165369 H 12.5277 Z" /><path
         style="fill:#f7fb3e;fill-opacity:1;fill-rule:evenodd;stroke:#000000;stroke-width:2.09414;stroke-linecap:butt;stroke-linejoin:miter;stroke-dasharray:none;stroke-opacity:1;marker-end:url(#TriangleStart-3-3-3-3-7-6)"
         d="m 16.630603,67.526101 c -1.134028,-7.981026 2.187991,-9.78411 7.115289,-10.526126"
         id="path1112-5-5-2-2-6-0"
         sodipodi:nodetypes="cc" /><path
         id="rect7613-9-7-2"
         style="stroke:#000000;stroke-linecap:round;stroke-linejoin:round"
         d="M 12.5277,51.478424 H 29.214638 V 68.165369 H 12.5277 Z" /><path
         style="fill:#f7fb3e;fill-opacity:1;fill-rule:evenodd;stroke:#000000;stroke-width:2.09414;stroke-linecap:butt;stroke-linejoin:miter;stroke-dasharray:none;stroke-opacity:1;marker-end:url(#TriangleStart-3-3-3-3-7-6)"
         d="m 16.630603,67.526101 c -1.134028,-7.981026 2.187991,-9.78411 7.115289,-10.526126"
         id="path7615-0-3-1"
         sodipodi:nodetypes="cc" /></g><g
       aria-label="3"
       id="text2962-6-1-8-7-6-0"
       style="font-size:6.35px;line-height:1.25;stroke-width:0.264583"><path
         d="m -165.99375,379.84285 q 0,0.31115 -0.13335,0.53975 -0.127,0.2286 -0.34925,0.37465 -0.2159,0.14605 -0.4953,0.2159 v 0.0191 q 0.5461,0.0635 0.8255,0.3302 0.28575,0.2667 0.28575,0.71755 0,0.3937 -0.19685,0.7112 -0.1905,0.31115 -0.5969,0.4953 -0.40005,0.1778 -1.03505,0.1778 -0.37465,0 -0.6985,-0.0635 -0.32385,-0.0635 -0.6096,-0.18415 v -0.8128 q 0.2921,0.14605 0.6096,0.22225 0.32385,0.0762 0.5969,0.0762 0.51435,0 0.71755,-0.1778 0.20955,-0.1778 0.20955,-0.50165 0,-0.1905 -0.0952,-0.3175 -0.0953,-0.13335 -0.33655,-0.19685 -0.23495,-0.0699 -0.6604,-0.0699 h -0.3429 v -0.7366 h 0.34925 q 0.4191,0 0.635,-0.0762 0.22225,-0.0826 0.29845,-0.2159 0.0825,-0.1397 0.0825,-0.3175 0,-0.2413 -0.1524,-0.37465 -0.14605,-0.1397 -0.4953,-0.1397 -0.2159,0 -0.3937,0.0571 -0.1778,0.0508 -0.32385,0.127 -0.1397,0.0762 -0.24765,0.14605 l -0.4445,-0.6604 q 0.1778,-0.127 0.3937,-0.2286 0.22225,-0.1016 0.48895,-0.15875 0.2667,-0.0571 0.5969,-0.0571 0.6985,0 1.1049,0.28575 0.41275,0.2794 0.41275,0.79375 z"
         style="font-weight:bold"
         id="path33161" /></g><g
       id="g1409"
       transform="matrix(1.022116,0,0,0.99951995,-191.79227,318.20812)"
       style="fill:#f7fb3e;fill-opacity:1;stroke-width:2.09414;stroke-dasharray:none"><path
         id="path1401"
         style="stroke:#000000;stroke-linecap:round;stroke-linejoin:round"
         d="M 12.5277,51.478424 H 29.214638 V 68.165369 H 12.5277 Z" /><path
         style="fill:#f7fb3e;fill-opacity:1;fill-rule:evenodd;stroke:#000000;stroke-width:2.09414;stroke-linecap:butt;stroke-linejoin:miter;stroke-dasharray:none;stroke-opacity:1;marker-end:url(#TriangleStart-3-3-3-3-7-6)"
         d="m 16.630603,67.526101 c -1.134028,-7.981026 2.187991,-9.78411 7.115289,-10.526126"
         id="path1403"
         sodipodi:nodetypes="cc" /><path
         id="path1405"
         style="stroke:#000000;stroke-linecap:round;stroke-linejoin:round"
         d="M 12.5277,51.478424 H 29.214638 V 68.165369 H 12.5277 Z" /><path
         style="fill:#f7fb3e;fill-opacity:1;fill-rule:evenodd;stroke:#000000;stroke-width:2.09414;stroke-linecap:butt;stroke-linejoin:miter;stroke-dasharray:none;stroke-opacity:1;marker-end:url(#TriangleStart-3-3-3-3-7-6)"
         d="m 16.630603,67.526101 c -1.134028,-7.981026 2.187991,-9.78411 7.115289,-10.526126"
         id="path1407"
         sodipodi:nodetypes="cc" /></g><g
       aria-label="3"
       id="text1465"
       style="font-size:6.35px;line-height:1.25;stroke-width:0.264583"><path
         d="m -165.99375,379.84285 q 0,0.31115 -0.13335,0.53975 -0.127,0.2286 -0.34925,0.37465 -0.2159,0.14605 -0.4953,0.2159 v 0.0191 q 0.5461,0.0635 0.8255,0.3302 0.28575,0.2667 0.28575,0.71755 0,0.3937 -0.19685,0.7112 -0.1905,0.31115 -0.5969,0.4953 -0.40005,0.1778 -1.03505,0.1778 -0.37465,0 -0.6985,-0.0635 -0.32385,-0.0635 -0.6096,-0.18415 v -0.8128 q 0.2921,0.14605 0.6096,0.22225 0.32385,0.0762 0.5969,0.0762 0.51435,0 0.71755,-0.1778 0.20955,-0.1778 0.20955,-0.50165 0,-0.1905 -0.0952,-0.3175 -0.0953,-0.13335 -0.33655,-0.19685 -0.23495,-0.0699 -0.6604,-0.0699 h -0.3429 v -0.7366 h 0.34925 q 0.4191,0 0.635,-0.0762 0.22225,-0.0826 0.29845,-0.2159 0.0825,-0.1397 0.0825,-0.3175 0,-0.2413 -0.1524,-0.37465 -0.14605,-0.1397 -0.4953,-0.1397 -0.2159,0 -0.3937,0.0571 -0.1778,0.0508 -0.32385,0.127 -0.1397,0.0762 -0.24765,0.14605 l -0.4445,-0.6604 q 0.1778,-0.127 0.3937,-0.2286 0.22225,-0.1016 0.48895,-0.15875 0.2667,-0.0571 0.5969,-0.0571 0.6985,0 1.1049,0.28575 0.41275,0.2794 0.41275,0.79375 z"
         style="font-weight:bold"
         id="path33207" /></g></g></svg>
