<?xml version="1.0" encoding="UTF-8" standalone="no"?>
<!-- Created with Inkscape (http://www.inkscape.org/) -->

<svg
   width="19.196434mm"
   height="18.772064mm"
   viewBox="0 0 19.196434 18.772064"
   version="1.1"
   id="svg5"
   inkscape:version="1.2.2 (b0a8486541, 2022-12-01)"
   sodipodi:docname="all_symbols.svg.2023_03_14_19_33_14.0.svg"
   inkscape:export-filename="symbols 5/7 right.svg"
   inkscape:export-xdpi="96"
   inkscape:export-ydpi="96"
   xml:space="preserve"
   xmlns:inkscape="http://www.inkscape.org/namespaces/inkscape"
   xmlns:sodipodi="http://sodipodi.sourceforge.net/DTD/sodipodi-0.dtd"
   xmlns="http://www.w3.org/2000/svg"
   xmlns:svg="http://www.w3.org/2000/svg"><sodipodi:namedview
     id="namedview7"
     pagecolor="#ffffff"
     bordercolor="#666666"
     borderopacity="1.0"
     inkscape:showpageshadow="2"
     inkscape:pageopacity="0.0"
     inkscape:pagecheckerboard="0"
     inkscape:deskcolor="#d1d1d1"
     inkscape:document-units="mm"
     showgrid="false"
     inkscape:zoom="0.47757151"
     inkscape:cx="365.39031"
     inkscape:cy="1739.0066"
     inkscape:window-width="1280"
     inkscape:window-height="739"
     inkscape:window-x="0"
     inkscape:window-y="0"
     inkscape:window-maximized="1"
     inkscape:current-layer="layer1"
     inkscape:lockguides="false" /><defs
     id="defs2"><marker
       style="overflow:visible"
       id="TriangleStart-3-3-3-9-1-1-3"
       refX="0"
       refY="0"
       orient="auto-start-reverse"
       inkscape:stockid="TriangleStart"
       markerWidth="2.3239999"
       markerHeight="2.6867051"
       viewBox="0 0 5.3244081 6.1553851"
       inkscape:isstock="true"
       inkscape:collect="always"
       preserveAspectRatio="xMidYMid"><path
         transform="scale(0.5)"
         style="fill:context-stroke;fill-rule:evenodd;stroke:context-stroke;stroke-width:1pt"
         d="M 5.77,0 -2.88,5 V -5 Z"
         id="path135-6-6-5-1-5-2-0" /></marker></defs><g
     inkscape:label="Layer 1"
     inkscape:groupmode="layer"
     id="layer1"
     transform="translate(180.05773,-390.6156)"><g
       id="g8835-2-6-0"
       transform="matrix(1.022116,0,0,0.99951995,-191.83018,319.30722)"
       style="stroke-width:2.09414;stroke-dasharray:none"
       inkscape:export-filename="../../../../BNG-rallymode/art/symbols/4 right.svg"
       inkscape:export-xdpi="96"
       inkscape:export-ydpi="96"><path
         id="rect234-7-7-6-2-8-5-5"
         style="fill:#c9ff00;stroke:#000000;stroke-linecap:round;stroke-linejoin:round"
         d="M 12.564793,72.389694 H 29.25173 V 89.076639 H 12.564793 Z" /><path
         style="fill:none;fill-rule:evenodd;stroke:#000000;stroke-width:2.09414;stroke-linecap:butt;stroke-linejoin:miter;stroke-dasharray:none;stroke-opacity:1;marker-end:url(#TriangleStart-3-3-3-9-1-1-3)"
         d="m 15.311239,88.662563 c 0.551741,-4.5448 1.063244,-7.238469 9.029526,-11.654456"
         id="path1112-5-5-2-7-3-6-1"
         sodipodi:nodetypes="cc" /><path
         id="rect7617-8-3-1"
         style="fill:#c9ff00;stroke:#000000;stroke-linecap:round;stroke-linejoin:round"
         d="M 12.564793,72.389694 H 29.25173 V 89.076639 H 12.564793 Z" /><path
         style="fill:none;fill-rule:evenodd;stroke:#000000;stroke-width:2.09414;stroke-linecap:butt;stroke-linejoin:miter;stroke-dasharray:none;stroke-opacity:1;marker-end:url(#TriangleStart-3-3-3-9-1-1-3)"
         d="m 15.311239,88.662563 c 0.551741,-4.5448 1.063244,-7.238469 9.029526,-11.654456"
         id="path7619-0-9-0"
         sodipodi:nodetypes="cc" /></g><g
       aria-label="4"
       id="text2962-6-1-8-8-2"
       style="font-size:6.35px;line-height:1.25;stroke-width:0.264583"><path
         d="m -165.86041,404.77102 h -0.5461 v 0.9398 h -0.93345 v -0.9398 h -1.93675 v -0.66675 l 1.98755,-2.92735 h 0.88265 v 2.85115 h 0.5461 z m -1.47955,-1.5113 q 0,-0.10795 0,-0.254 0.006,-0.1524 0.0127,-0.29845 0.006,-0.1524 0.0127,-0.2667 0.006,-0.12065 0.0127,-0.1651 h -0.0254 q -0.0572,0.127 -0.12065,0.24765 -0.0635,0.12065 -0.1524,0.24765 l -0.83185,1.2573 h 1.0922 z"
         style="font-weight:bold"
         id="path33158" /></g><g
       id="g1419"
       transform="matrix(1.022116,0,0,0.99951995,-191.83018,319.30722)"
       style="stroke-width:2.09414;stroke-dasharray:none"><path
         id="path1411"
         style="fill:#c9ff00;stroke:#000000;stroke-linecap:round;stroke-linejoin:round"
         d="M 12.564793,72.389694 H 29.25173 V 89.076639 H 12.564793 Z" /><path
         style="fill:none;fill-rule:evenodd;stroke:#000000;stroke-width:2.09414;stroke-linecap:butt;stroke-linejoin:miter;stroke-dasharray:none;stroke-opacity:1;marker-end:url(#TriangleStart-3-3-3-9-1-1-3)"
         d="m 15.311239,88.662563 c 0.551741,-4.5448 1.063244,-7.238469 9.029526,-11.654456"
         id="path1413"
         sodipodi:nodetypes="cc" /><path
         id="path1415"
         style="fill:#c9ff00;stroke:#000000;stroke-linecap:round;stroke-linejoin:round"
         d="M 12.564793,72.389694 H 29.25173 V 89.076639 H 12.564793 Z" /><path
         style="fill:none;fill-rule:evenodd;stroke:#000000;stroke-width:2.09414;stroke-linecap:butt;stroke-linejoin:miter;stroke-dasharray:none;stroke-opacity:1;marker-end:url(#TriangleStart-3-3-3-9-1-1-3)"
         d="m 15.311239,88.662563 c 0.551741,-4.5448 1.063244,-7.238469 9.029526,-11.654456"
         id="path1417"
         sodipodi:nodetypes="cc" /></g><g
       aria-label="4"
       id="text1461"
       style="font-size:6.35px;line-height:1.25;stroke-width:0.264583"><path
         d="m -165.86041,404.77102 h -0.5461 v 0.9398 h -0.93345 v -0.9398 h -1.93675 v -0.66675 l 1.98755,-2.92735 h 0.88265 v 2.85115 h 0.5461 z m -1.47955,-1.5113 q 0,-0.10795 0,-0.254 0.006,-0.1524 0.0127,-0.29845 0.006,-0.1524 0.0127,-0.2667 0.006,-0.12065 0.0127,-0.1651 h -0.0254 q -0.0572,0.127 -0.12065,0.24765 -0.0635,0.12065 -0.1524,0.24765 l -0.83185,1.2573 h 1.0922 z"
         style="font-weight:bold"
         id="path33204" /></g></g></svg>
