<?xml version="1.0" encoding="UTF-8" standalone="no"?>
<!-- Created with Inkscape (http://www.inkscape.org/) -->

<svg
   width="19.196438mm"
   height="18.772095mm"
   viewBox="0 0 19.196437 18.772094"
   version="1.1"
   id="svg5"
   inkscape:version="1.2.2 (b0a8486541, 2022-12-01)"
   sodipodi:docname="all_symbols.svg.2023_03_14_19_33_14.0.svg"
   inkscape:export-filename="symbols 5/7 right.svg"
   inkscape:export-xdpi="96"
   inkscape:export-ydpi="96"
   xml:space="preserve"
   xmlns:inkscape="http://www.inkscape.org/namespaces/inkscape"
   xmlns:sodipodi="http://sodipodi.sourceforge.net/DTD/sodipodi-0.dtd"
   xmlns="http://www.w3.org/2000/svg"
   xmlns:svg="http://www.w3.org/2000/svg"><sodipodi:namedview
     id="namedview7"
     pagecolor="#ffffff"
     bordercolor="#666666"
     borderopacity="1.0"
     inkscape:showpageshadow="2"
     inkscape:pageopacity="0.0"
     inkscape:pagecheckerboard="0"
     inkscape:deskcolor="#d1d1d1"
     inkscape:document-units="mm"
     showgrid="false"
     inkscape:zoom="0.47757151"
     inkscape:cx="365.39031"
     inkscape:cy="1739.0066"
     inkscape:window-width="1280"
     inkscape:window-height="739"
     inkscape:window-x="0"
     inkscape:window-y="0"
     inkscape:window-maximized="1"
     inkscape:current-layer="layer1"
     inkscape:lockguides="false" /><defs
     id="defs2"><marker
       style="overflow:visible"
       id="TriangleStart-3-3-3-9-0-9-3-3"
       refX="0"
       refY="0"
       orient="auto-start-reverse"
       inkscape:stockid="TriangleStart"
       markerWidth="2.3239999"
       markerHeight="2.6867051"
       viewBox="0 0 5.3244081 6.1553851"
       inkscape:isstock="true"
       inkscape:collect="always"
       preserveAspectRatio="xMidYMid"><path
         transform="scale(0.5)"
         style="fill:context-stroke;fill-rule:evenodd;stroke:context-stroke;stroke-width:1pt"
         d="M 5.77,0 -2.88,5 V -5 Z"
         id="path135-6-6-5-1-9-9-1-0" /></marker></defs><g
     inkscape:label="Layer 1"
     inkscape:groupmode="layer"
     id="layer1"
     transform="translate(180.05773,-412.61591)"><g
       id="g8903-4-4-8"
       transform="matrix(1.022116,0,0,0.99951995,-191.57937,319.9013)"
       style="fill:#00ff75;fill-opacity:1;stroke-width:2.09414;stroke-dasharray:none"
       inkscape:export-filename="../../../../BNG-rallymode/art/symbols/5 right.svg"
       inkscape:export-xdpi="96"
       inkscape:export-ydpi="96"><path
         id="rect234-7-7-6-2-3-0-8-5"
         style="stroke:#000000;stroke-linecap:round;stroke-linejoin:round"
         d="M 12.319407,93.806236 H 29.006345 V 110.49318 H 12.319407 Z" /><path
         style="fill:#00ff75;fill-opacity:1;fill-rule:evenodd;stroke:#000000;stroke-width:2.09414;stroke-linecap:butt;stroke-linejoin:miter;stroke-dasharray:none;stroke-opacity:1;marker-end:url(#TriangleStart-3-3-3-9-0-9-3-3)"
         d="m 17.239467,110.07503 c 1.130711,-5.7043 1.603505,-6.54453 6.704662,-11.482101"
         id="path1112-5-5-2-7-6-9-1-0"
         sodipodi:nodetypes="cc" /><path
         id="rect7621-1-2-6"
         style="stroke:#000000;stroke-linecap:round;stroke-linejoin:round"
         d="M 12.319407,93.806236 H 29.006345 V 110.49318 H 12.319407 Z" /><path
         style="fill:#00ff75;fill-opacity:1;fill-rule:evenodd;stroke:#000000;stroke-width:2.09414;stroke-linecap:butt;stroke-linejoin:miter;stroke-dasharray:none;stroke-opacity:1;marker-end:url(#TriangleStart-3-3-3-9-0-9-3-3)"
         d="m 17.239467,110.07503 c 1.130711,-5.7043 1.603505,-6.54453 6.704662,-11.482101"
         id="path7623-9-9-4"
         sodipodi:nodetypes="cc" /></g><g
       aria-label="5"
       id="text2962-6-1-83-4"
       style="font-size:6.35px;line-height:1.25;stroke-width:0.264583"><path
         d="m -167.29552,424.64828 q 0.41275,0 0.7366,0.15875 0.32385,0.15875 0.508,0.46355 0.1905,0.3048 0.1905,0.75565 0,0.48895 -0.2032,0.84455 -0.2032,0.3556 -0.6096,0.5461 -0.40005,0.1905 -0.99695,0.1905 -0.3556,0 -0.6731,-0.0635 -0.31115,-0.0635 -0.5461,-0.18415 v -0.8255 q 0.23495,0.12065 0.56515,0.20955 0.3302,0.0825 0.6223,0.0825 0.28575,0 0.47625,-0.0762 0.19685,-0.0762 0.29845,-0.23495 0.1016,-0.15875 0.1016,-0.4064 0,-0.33655 -0.22225,-0.508 -0.22225,-0.1778 -0.6858,-0.1778 -0.1778,0 -0.3683,0.0381 -0.1905,0.0318 -0.3175,0.0635 l -0.381,-0.2032 0.17145,-2.3114 h 2.45745 v 0.8128 h -1.61925 l -0.0825,0.889 q 0.10795,-0.019 0.2286,-0.0381 0.127,-0.0254 0.34925,-0.0254 z"
         style="font-weight:bold"
         id="path33155" /></g><g
       id="g1429"
       transform="matrix(1.022116,0,0,0.99951995,-191.57937,319.9013)"
       style="fill:#00ff75;fill-opacity:1;stroke-width:2.09414;stroke-dasharray:none"><path
         id="path1421"
         style="stroke:#000000;stroke-linecap:round;stroke-linejoin:round"
         d="M 12.319407,93.806236 H 29.006345 V 110.49318 H 12.319407 Z" /><path
         style="fill:#00ff75;fill-opacity:1;fill-rule:evenodd;stroke:#000000;stroke-width:2.09414;stroke-linecap:butt;stroke-linejoin:miter;stroke-dasharray:none;stroke-opacity:1;marker-end:url(#TriangleStart-3-3-3-9-0-9-3-3)"
         d="m 17.239467,110.07503 c 1.130711,-5.7043 1.603505,-6.54453 6.704662,-11.482101"
         id="path1423"
         sodipodi:nodetypes="cc" /><path
         id="path1425"
         style="stroke:#000000;stroke-linecap:round;stroke-linejoin:round"
         d="M 12.319407,93.806236 H 29.006345 V 110.49318 H 12.319407 Z" /><path
         style="fill:#00ff75;fill-opacity:1;fill-rule:evenodd;stroke:#000000;stroke-width:2.09414;stroke-linecap:butt;stroke-linejoin:miter;stroke-dasharray:none;stroke-opacity:1;marker-end:url(#TriangleStart-3-3-3-9-0-9-3-3)"
         d="m 17.239467,110.07503 c 1.130711,-5.7043 1.603505,-6.54453 6.704662,-11.482101"
         id="path1427"
         sodipodi:nodetypes="cc" /></g><g
       aria-label="5"
       id="text1457"
       style="font-size:6.35px;line-height:1.25;stroke-width:0.264583"><path
         d="m -167.29552,424.64828 q 0.41275,0 0.7366,0.15875 0.32385,0.15875 0.508,0.46355 0.1905,0.3048 0.1905,0.75565 0,0.48895 -0.2032,0.84455 -0.2032,0.3556 -0.6096,0.5461 -0.40005,0.1905 -0.99695,0.1905 -0.3556,0 -0.6731,-0.0635 -0.31115,-0.0635 -0.5461,-0.18415 v -0.8255 q 0.23495,0.12065 0.56515,0.20955 0.3302,0.0825 0.6223,0.0825 0.28575,0 0.47625,-0.0762 0.19685,-0.0762 0.29845,-0.23495 0.1016,-0.15875 0.1016,-0.4064 0,-0.33655 -0.22225,-0.508 -0.22225,-0.1778 -0.6858,-0.1778 -0.1778,0 -0.3683,0.0381 -0.1905,0.0318 -0.3175,0.0635 l -0.381,-0.2032 0.17145,-2.3114 h 2.45745 v 0.8128 h -1.61925 l -0.0825,0.889 q 0.10795,-0.019 0.2286,-0.0381 0.127,-0.0254 0.34925,-0.0254 z"
         style="font-weight:bold"
         id="path33201" /></g></g></svg>
