<?xml version="1.0" encoding="UTF-8" standalone="no"?>
<!-- Created with Inkscape (http://www.inkscape.org/) -->

<svg
   width="19.19644mm"
   height="18.772095mm"
   viewBox="0 0 19.196439 18.772094"
   version="1.1"
   id="svg5"
   inkscape:version="1.2.2 (b0a8486541, 2022-12-01)"
   sodipodi:docname="all_symbols.svg.2023_03_14_19_33_14.0.svg"
   inkscape:export-filename="symbols 5/7 right.svg"
   inkscape:export-xdpi="96"
   inkscape:export-ydpi="96"
   xml:space="preserve"
   xmlns:inkscape="http://www.inkscape.org/namespaces/inkscape"
   xmlns:sodipodi="http://sodipodi.sourceforge.net/DTD/sodipodi-0.dtd"
   xmlns="http://www.w3.org/2000/svg"
   xmlns:svg="http://www.w3.org/2000/svg"><sodipodi:namedview
     id="namedview7"
     pagecolor="#ffffff"
     bordercolor="#666666"
     borderopacity="1.0"
     inkscape:showpageshadow="2"
     inkscape:pageopacity="0.0"
     inkscape:pagecheckerboard="0"
     inkscape:deskcolor="#d1d1d1"
     inkscape:document-units="mm"
     showgrid="false"
     inkscape:zoom="0.47757151"
     inkscape:cx="365.39031"
     inkscape:cy="1739.0066"
     inkscape:window-width="1280"
     inkscape:window-height="739"
     inkscape:window-x="0"
     inkscape:window-y="0"
     inkscape:window-maximized="1"
     inkscape:current-layer="layer1"
     inkscape:lockguides="false" /><defs
     id="defs2"><marker
       style="overflow:visible"
       id="TriangleStart-3-3-3-9-0-0-14-4"
       refX="0"
       refY="0"
       orient="auto-start-reverse"
       inkscape:stockid="TriangleStart"
       markerWidth="2.3239999"
       markerHeight="2.6867051"
       viewBox="0 0 5.3244081 6.1553851"
       inkscape:isstock="true"
       inkscape:collect="always"
       preserveAspectRatio="xMidYMid"><path
         transform="scale(0.5)"
         style="fill:context-stroke;fill-rule:evenodd;stroke:context-stroke;stroke-width:1pt"
         d="M 5.77,0 -2.88,5 V -5 Z"
         id="path135-6-6-5-1-9-6-9-7" /></marker></defs><g
     inkscape:label="Layer 1"
     inkscape:groupmode="layer"
     id="layer1"
     transform="translate(208.12173,-434.97614)"><g
       id="g8971-6-3"
       transform="matrix(-1.022116,0,0,0.99951995,-177.43114,320.77804)"
       style="stroke-width:2.09414;stroke-dasharray:none"
       inkscape:export-filename="../../../../BNG-rallymode/art/symbols/6 left.svg"
       inkscape:export-xdpi="96"
       inkscape:export-ydpi="96"><path
         id="rect234-7-7-6-2-3-2-2-9"
         style="fill:#00ffd2;stroke:#000000;stroke-linecap:round;stroke-linejoin:round"
         d="m 12.29252,115.30003 h 16.686937 v 16.68695 H 12.29252 Z" /><path
         style="fill:#00ffd2;fill-opacity:1;fill-rule:evenodd;stroke:#000000;stroke-width:2.09414;stroke-linecap:butt;stroke-linejoin:miter;stroke-dasharray:none;stroke-opacity:1;marker-end:url(#TriangleStart-3-3-3-9-0-0-14-4)"
         d="m 18.7421,131.96337 c 0.52887,-2.7821 1.37158,-7.50918 3.872565,-11.39667"
         id="path1112-5-5-2-7-6-6-5-0"
         sodipodi:nodetypes="cc" /><path
         id="rect7625-4-8"
         style="fill:#00ffd2;stroke:#000000;stroke-linecap:round;stroke-linejoin:round"
         d="m 12.29252,115.30003 h 16.686937 v 16.68695 H 12.29252 Z" /><path
         style="fill:#00ffd2;fill-opacity:1;fill-rule:evenodd;stroke:#000000;stroke-width:2.09414;stroke-linecap:butt;stroke-linejoin:miter;stroke-dasharray:none;stroke-opacity:1;marker-end:url(#TriangleStart-3-3-3-9-0-0-14-4)"
         d="m 18.7421,131.96337 c 0.52887,-2.7821 1.37158,-7.50918 3.872565,-11.39667"
         id="path7627-4-8"
         sodipodi:nodetypes="cc" /></g><g
       aria-label="6"
       id="text2962-6-3"
       style="font-size:6.35px;line-height:1.25;stroke-width:0.264583"><path
         d="m -203.43078,448.50179 q 0,-0.3937 0.0572,-0.7747 0.0571,-0.381 0.19685,-0.71755 0.14605,-0.3429 0.40005,-0.60325 0.26035,-0.2667 0.65405,-0.41275 0.40005,-0.1524 0.9652,-0.1524 0.13335,0 0.31115,0.0127 0.1778,0.006 0.29845,0.0317 v 0.76835 q -0.12065,-0.0317 -0.2667,-0.0444 -0.1397,-0.019 -0.2794,-0.019 -0.42545,0 -0.70485,0.1016 -0.27305,0.1016 -0.4318,0.2921 -0.15875,0.1905 -0.23495,0.45085 -0.0699,0.254 -0.0825,0.5715 h 0.0381 q 0.0889,-0.1524 0.2159,-0.2667 0.13335,-0.12065 0.32385,-0.1905 0.1905,-0.0698 0.4445,-0.0698 0.40005,0 0.6858,0.17145 0.2921,0.1651 0.45085,0.48895 0.15875,0.3175 0.15875,0.7747 0,0.48895 -0.1905,0.84455 -0.18415,0.3556 -0.5334,0.5461 -0.3429,0.18415 -0.81915,0.18415 -0.34925,0 -0.65405,-0.12065 -0.29845,-0.12065 -0.52705,-0.36195 -0.22225,-0.24765 -0.34925,-0.6223 -0.127,-0.37465 -0.127,-0.88265 z m 1.6383,1.2192 q 0.2794,0 0.4572,-0.1905 0.1778,-0.19685 0.1778,-0.60325 0,-0.3302 -0.1524,-0.5207 -0.1524,-0.1905 -0.46355,-0.1905 -0.20955,0 -0.3683,0.0952 -0.15875,0.0889 -0.24765,0.23495 -0.0889,0.14605 -0.0889,0.29845 0,0.15875 0.0445,0.3175 0.0445,0.1524 0.127,0.2794 0.0889,0.127 0.2159,0.2032 0.127,0.0762 0.29845,0.0762 z"
         style="font-weight:bold"
         id="path33129" /></g><g
       id="g1303"
       transform="matrix(-1.022116,0,0,0.99951995,-177.43114,320.77804)"
       style="stroke-width:2.09414;stroke-dasharray:none"><path
         id="path1295"
         style="fill:#00ffd2;stroke:#000000;stroke-linecap:round;stroke-linejoin:round"
         d="m 12.29252,115.30003 h 16.686937 v 16.68695 H 12.29252 Z" /><path
         style="fill:#00ffd2;fill-opacity:1;fill-rule:evenodd;stroke:#000000;stroke-width:2.09414;stroke-linecap:butt;stroke-linejoin:miter;stroke-dasharray:none;stroke-opacity:1;marker-end:url(#TriangleStart-3-3-3-9-0-0-14-4)"
         d="m 18.7421,131.96337 c 0.52887,-2.7821 1.37158,-7.50918 3.872565,-11.39667"
         id="path1297"
         sodipodi:nodetypes="cc" /><path
         id="path1299"
         style="fill:#00ffd2;stroke:#000000;stroke-linecap:round;stroke-linejoin:round"
         d="m 12.29252,115.30003 h 16.686937 v 16.68695 H 12.29252 Z" /><path
         style="fill:#00ffd2;fill-opacity:1;fill-rule:evenodd;stroke:#000000;stroke-width:2.09414;stroke-linecap:butt;stroke-linejoin:miter;stroke-dasharray:none;stroke-opacity:1;marker-end:url(#TriangleStart-3-3-3-9-0-0-14-4)"
         d="m 18.7421,131.96337 c 0.52887,-2.7821 1.37158,-7.50918 3.872565,-11.39667"
         id="path1301"
         sodipodi:nodetypes="cc" /></g><g
       aria-label="6"
       id="text1307"
       style="font-size:6.35px;line-height:1.25;stroke-width:0.264583"><path
         d="m -203.43078,448.50179 q 0,-0.3937 0.0572,-0.7747 0.0571,-0.381 0.19685,-0.71755 0.14605,-0.3429 0.40005,-0.60325 0.26035,-0.2667 0.65405,-0.41275 0.40005,-0.1524 0.9652,-0.1524 0.13335,0 0.31115,0.0127 0.1778,0.006 0.29845,0.0317 v 0.76835 q -0.12065,-0.0317 -0.2667,-0.0444 -0.1397,-0.019 -0.2794,-0.019 -0.42545,0 -0.70485,0.1016 -0.27305,0.1016 -0.4318,0.2921 -0.15875,0.1905 -0.23495,0.45085 -0.0699,0.254 -0.0825,0.5715 h 0.0381 q 0.0889,-0.1524 0.2159,-0.2667 0.13335,-0.12065 0.32385,-0.1905 0.1905,-0.0698 0.4445,-0.0698 0.40005,0 0.6858,0.17145 0.2921,0.1651 0.45085,0.48895 0.15875,0.3175 0.15875,0.7747 0,0.48895 -0.1905,0.84455 -0.18415,0.3556 -0.5334,0.5461 -0.3429,0.18415 -0.81915,0.18415 -0.34925,0 -0.65405,-0.12065 -0.29845,-0.12065 -0.52705,-0.36195 -0.22225,-0.24765 -0.34925,-0.6223 -0.127,-0.37465 -0.127,-0.88265 z m 1.6383,1.2192 q 0.2794,0 0.4572,-0.1905 0.1778,-0.19685 0.1778,-0.60325 0,-0.3302 -0.1524,-0.5207 -0.1524,-0.1905 -0.46355,-0.1905 -0.20955,0 -0.3683,0.0952 -0.15875,0.0889 -0.24765,0.23495 -0.0889,0.14605 -0.0889,0.29845 0,0.15875 0.0445,0.3175 0.0445,0.1524 0.127,0.2794 0.0889,0.127 0.2159,0.2032 0.127,0.0762 0.29845,0.0762 z"
         style="font-weight:bold"
         id="path33175" /></g></g></svg>
