<?xml version="1.0" encoding="UTF-8" standalone="no"?>
<!-- Created with Inkscape (http://www.inkscape.org/) -->

<svg
   width="19.873596mm"
   height="18.803619mm"
   viewBox="0 0 19.873596 18.803619"
   version="1.1"
   id="svg5"
   inkscape:version="1.2.1 (9c6d41e410, 2022-07-14)"
   sodipodi:docname="60.svg"
   inkscape:export-filename="symbols 5/7 right.svg"
   inkscape:export-xdpi="96"
   inkscape:export-ydpi="96"
   xml:space="preserve"
   xmlns:inkscape="http://www.inkscape.org/namespaces/inkscape"
   xmlns:sodipodi="http://sodipodi.sourceforge.net/DTD/sodipodi-0.dtd"
   xmlns="http://www.w3.org/2000/svg"
   xmlns:svg="http://www.w3.org/2000/svg"><sodipodi:namedview
     id="namedview7"
     pagecolor="#ffffff"
     bordercolor="#666666"
     borderopacity="1.0"
     inkscape:showpageshadow="2"
     inkscape:pageopacity="0.0"
     inkscape:pagecheckerboard="0"
     inkscape:deskcolor="#d1d1d1"
     inkscape:document-units="mm"
     showgrid="false"
     inkscape:zoom="0.8244168"
     inkscape:cx="590.72062"
     inkscape:cy="458.50594"
     inkscape:window-width="1920"
     inkscape:window-height="1043"
     inkscape:window-x="0"
     inkscape:window-y="0"
     inkscape:window-maximized="1"
     inkscape:current-layer="layer1"
     inkscape:lockguides="false" /><defs
     id="defs2" /><g
     inkscape:label="Layer 1"
     inkscape:groupmode="layer"
     id="layer1"
     transform="translate(-45.018884,-70.454283)"><path
       id="rect7607-3-31-02-9-45"
       style="fill:#ff9ac8;stroke:#000000;stroke-width:2.11667;stroke-linejoin:round"
       d="m 51.791368,71.512619 h 6.328619 c 3.165645,0 5.714159,2.548515 5.714159,5.714159 v 5.258629 c 0,3.165644 -2.548514,5.714159 -5.714159,5.714159 h -6.328619 c -3.165644,0 -5.714159,-2.548515 -5.714159,-5.714159 v -5.258629 c 0,-3.165644 2.548515,-5.714159 5.714159,-5.714159 z" /><g
       aria-label="60"
       transform="scale(0.91586767,1.0918608)"
       id="text7611-2-7"
       style="font-size:12.7px;line-height:125%;font-family:QTHelvetCnd-Black;-inkscape-font-specification:QTHelvetCnd-Black;letter-spacing:0px;word-spacing:0px;stroke-width:2.11667"><path
         d="m 59.749948,74.179012 c 0,-1.397 -0.5334,-2.4892 -2.0828,-2.4892 -0.5842,0 -1.143,0.2286 -1.4732,0.7112 0.0508,-0.5842 0,-1.2446 0.1524,-1.8034 0.0762,-0.3302 0.254,-0.4572 0.5842,-0.4572 0.4572,0 0.5334,0.4318 0.5334,0.8128 h 2.0828 c 0,-1.5494 -0.9906,-2.2098 -2.4638,-2.2098 -1.4732,0 -2.6924,0.4318 -2.9464,2.0828 -0.127,0.8636 -0.127,1.8034 -0.127,2.667 0,2.2606 0.2794,4.0386 2.9718,4.0386 2.1336,0 2.7686,-1.4478 2.7686,-3.3528 z m -2.2352,0.508 c 0,0.8128 -0.0508,1.397 -0.635,1.397 -0.5588,0 -0.6096,-0.5842 -0.6096,-1.4224 0,-0.7874 0.0508,-1.397 0.635,-1.397 0.4826,0 0.6096,0.4826 0.6096,1.4224 z"
         id="path5208" /><path
         d="m 65.998356,72.909012 c 0,-2.1336 -0.127,-4.1656 -2.7686,-4.1656 -2.7686,0 -2.921,1.9304 -2.921,4.1656 0,0.1016 -0.0254,0.2794 -0.0254,0.381 0,2.3114 0.1016,4.2418 2.8702,4.2418 2.8194,0 2.8448,-2.4384 2.8448,-4.6228 z m -2.2352,1.27 c 0,1.27 -0.0762,1.9558 -0.6096,1.9558 -0.5842,0 -0.6604,-0.889 -0.6604,-2.4384 0,-0.2286 0.0254,-0.508 0.0254,-0.762 0,-0.3556 -0.0254,-0.7366 -0.0254,-1.0668 0,-0.889 0.1016,-1.7018 0.6604,-1.7018 0.5588,0 0.6096,0.7874 0.6096,1.9304 z"
         id="path5210" /></g></g></svg>
