<?xml version="1.0" encoding="UTF-8" standalone="no"?>
<!-- Created with Inkscape (http://www.inkscape.org/) -->

<svg
   width="24.466003mm"
   height="18.803612mm"
   viewBox="0 0 24.466003 18.803611"
   version="1.1"
   id="svg5"
   inkscape:version="1.2.1 (9c6d41e410, 2022-07-14)"
   sodipodi:docname="900.svg"
   inkscape:export-filename="symbols 5/dont cut.svg"
   inkscape:export-xdpi="96"
   inkscape:export-ydpi="96"
   xml:space="preserve"
   xmlns:inkscape="http://www.inkscape.org/namespaces/inkscape"
   xmlns:sodipodi="http://sodipodi.sourceforge.net/DTD/sodipodi-0.dtd"
   xmlns="http://www.w3.org/2000/svg"
   xmlns:svg="http://www.w3.org/2000/svg"><sodipodi:namedview
     id="namedview7"
     pagecolor="#ffffff"
     bordercolor="#666666"
     borderopacity="1.0"
     inkscape:showpageshadow="2"
     inkscape:pageopacity="0.0"
     inkscape:pagecheckerboard="0"
     inkscape:deskcolor="#d1d1d1"
     inkscape:document-units="mm"
     showgrid="false"
     inkscape:zoom="0.58295071"
     inkscape:cx="514.62327"
     inkscape:cy="555.79313"
     inkscape:window-width="1920"
     inkscape:window-height="1043"
     inkscape:window-x="0"
     inkscape:window-y="0"
     inkscape:window-maximized="1"
     inkscape:current-layer="layer1"
     inkscape:lockguides="false" /><defs
     id="defs2" /><g
     inkscape:label="Layer 1"
     inkscape:groupmode="layer"
     id="layer1"
     transform="translate(-97.409267,36.66191)"><g
       id="g71609"><path
         id="rect7607-3-31-0"
         style="fill:#ffffff;stroke:#000000;stroke-width:2.11667;stroke-linejoin:round"
         d="m 98.467613,-35.60358 h 22.349347 v 16.686946 H 98.467613 Z" /><g
         aria-label="900"
         transform="scale(0.91586767,1.0918608)"
         id="text7611-49-3"
         style="font-size:12.7px;line-height:125%;font-family:QTHelvetCnd-Black;-inkscape-font-specification:QTHelvetCnd-Black;letter-spacing:0px;word-spacing:0px;stroke-width:2.11667"><path
           d="m 115.77711,-25.277386 c 0,-2.413 -0.127,-4.1148 -2.9718,-4.1148 -1.8542,0 -2.7432,1.0414 -2.7432,2.8448 0,1.5494 0.2794,2.9464 2.1336,2.9464 0.5588,0 1.0668,-0.1778 1.397,-0.6858 -0.0508,0.381 -0.0508,0.7874 -0.0762,1.1684 v 0.127 c 0,0.4318 -0.0254,0.9906 -0.6096,0.9906 -0.4826,0 -0.5842,-0.4064 -0.5842,-0.8128 h -2.0828 c 0.0254,1.5748 0.9906,2.2098 2.4892,2.2098 2.9718,0 3.048,-1.9558 3.048,-4.6736 z m -2.2606,-0.9652 c 0,0.5334 -0.0508,1.1176 -0.635,1.1176 -0.5842,0 -0.635,-0.635 -0.635,-1.1938 0,-0.0254 0.0254,-0.127 0.0254,-0.1524 0,-0.8636 0.0508,-1.4986 0.635,-1.4986 0.5334,0 0.6096,0.5588 0.6096,1.3716 z"
           id="path4764" /><path
           d="m 122.15252,-25.226586 c 0,-2.1336 -0.127,-4.1656 -2.7686,-4.1656 -2.7686,0 -2.921,1.9304 -2.921,4.1656 0,0.1016 -0.0254,0.2794 -0.0254,0.381 0,2.3114 0.1016,4.2418 2.8702,4.2418 2.8194,0 2.8448,-2.4384 2.8448,-4.6228 z m -2.2352,1.27 c 0,1.27 -0.0762,1.9558 -0.6096,1.9558 -0.5842,0 -0.6604,-0.889 -0.6604,-2.4384 0,-0.2286 0.0254,-0.508 0.0254,-0.762 0,-0.3556 -0.0254,-0.7366 -0.0254,-1.0668 0,-0.889 0.1016,-1.7018 0.6604,-1.7018 0.5588,0 0.6096,0.7874 0.6096,1.9304 z"
           id="path4766" /><path
           d="m 128.40092,-25.226586 c 0,-2.1336 -0.127,-4.1656 -2.7686,-4.1656 -2.7686,0 -2.921,1.9304 -2.921,4.1656 0,0.1016 -0.0254,0.2794 -0.0254,0.381 0,2.3114 0.1016,4.2418 2.8702,4.2418 2.8194,0 2.8448,-2.4384 2.8448,-4.6228 z m -2.2352,1.27 c 0,1.27 -0.0762,1.9558 -0.6096,1.9558 -0.5842,0 -0.6604,-0.889 -0.6604,-2.4384 0,-0.2286 0.0254,-0.508 0.0254,-0.762 0,-0.3556 -0.0254,-0.7366 -0.0254,-1.0668 0,-0.889 0.1016,-1.7018 0.6604,-1.7018 0.5588,0 0.6096,0.7874 0.6096,1.9304 z"
           id="path4768" /></g></g></g></svg>
