<?xml version="1.0" encoding="UTF-8" standalone="no"?>
<!-- Created with Inkscape (http://www.inkscape.org/) -->

<svg
   width="33.705853mm"
   height="40mm"
   viewBox="0 0 33.705852 40"
   version="1.1"
   id="svg5"
   inkscape:version="1.2.2 (b0a8486541, 2022-12-01)"
   sodipodi:docname="entry.svg"
   inkscape:export-filename="symbols 5/7 right.svg"
   inkscape:export-xdpi="96"
   inkscape:export-ydpi="96"
   xml:space="preserve"
   xmlns:inkscape="http://www.inkscape.org/namespaces/inkscape"
   xmlns:sodipodi="http://sodipodi.sourceforge.net/DTD/sodipodi-0.dtd"
   xmlns="http://www.w3.org/2000/svg"
   xmlns:svg="http://www.w3.org/2000/svg"><sodipodi:namedview
     id="namedview7"
     pagecolor="#ffffff"
     bordercolor="#666666"
     borderopacity="1.0"
     inkscape:showpageshadow="2"
     inkscape:pageopacity="0.0"
     inkscape:pagecheckerboard="0"
     inkscape:deskcolor="#d1d1d1"
     inkscape:document-units="mm"
     showgrid="false"
     inkscape:zoom="0.8244168"
     inkscape:cx="591.93359"
     inkscape:cy="461.53839"
     inkscape:window-width="1280"
     inkscape:window-height="739"
     inkscape:window-x="0"
     inkscape:window-y="0"
     inkscape:window-maximized="1"
     inkscape:current-layer="layer1"
     inkscape:lockguides="false" /><defs
     id="defs2" /><g
     inkscape:label="Layer 1"
     inkscape:groupmode="layer"
     id="layer1"
     transform="translate(180.27235,45.107883)"><path
       id="rect7601-9-9-2-8-4-4-9-7-1-1-3-9"
       style="fill:#ffffff;stroke:#000000;stroke-width:2.11667;stroke-linecap:round;stroke-linejoin:round"
       transform="scale(-1,1)"
       d="m 147.62483,-44.049549 h 31.58919 v 16.678928 h -31.58919 z" /><g
       aria-label="ENTRY"
       transform="scale(0.91586767,1.0918608)"
       id="text7611-2-6-0-2-0-7-9-3"
       style="font-size:11.2889px;line-height:125%;font-family:QTHelvetCnd-Black;-inkscape-font-specification:QTHelvetCnd-Black;letter-spacing:0px;word-spacing:0px;stroke-width:2.11667"><path
         d="m -188.08327,-28.946507 v -1.580446 h -2.59645 v -1.512712 h 2.32551 v -1.557868 h -2.32551 v -1.309513 h 2.48356 v -1.580446 h -4.44783 v 7.540985 z"
         id="path339" /><path
         d="m -182.05501,-28.946507 v -7.540985 h -1.85138 v 4.31236 l -1.26436,-4.31236 h -2.16746 v 7.540985 h 1.8288 v -4.334937 l 1.33209,4.334937 z"
         id="path341" /><path
         d="m -176.18479,-34.839312 v -1.64818 h -4.96712 v 1.64818 h 1.51272 v 5.892805 h 1.96427 v -5.892805 z"
         id="path343" /><path
         d="m -169.863,-28.946507 v -0.112889 c -0.27093,-0.112889 -0.29351,-0.496711 -0.29351,-0.835378 0,-0.293512 -0.0226,-0.587023 -0.0226,-0.880534 -0.0226,-0.970846 -0.11289,-1.761069 -1.24178,-1.896536 0.94827,-0.2032 1.28694,-0.8128 1.28694,-1.761068 0,-1.693335 -0.94827,-2.05458 -2.41583,-2.05458 h -2.73191 v 7.540985 h 1.98685 v -3.048003 c 1.24178,0 1.12889,0.31609 1.15147,1.354668 l 0.0226,0.609601 c 0,0.338667 0,0.767645 0.15805,1.083734 z m -2.2352,-5.260627 c 0,0.812801 -0.51929,0.880534 -1.19662,0.880534 v -1.761068 c 0.72249,0 1.19662,0.02258 1.19662,0.880534 z"
         id="path345" /><path
         d="m -164.21854,-36.487492 h -2.1449 l -0.72249,2.528714 -0.76764,-2.528714 h -2.19005 l 1.94169,4.560716 v 2.980269 h 1.96427 v -2.980269 z"
         id="path347" /></g></g></svg>
