<?xml version="1.0" encoding="UTF-8" standalone="no"?>
<!-- Created with Inkscape (http://www.inkscape.org/) -->

<svg
   width="27.262251mm"
   height="40mm"
   viewBox="0 0 27.26225 39.999998"
   version="1.1"
   id="svg5"
   inkscape:version="1.2.2 (b0a8486541, 2022-12-01)"
   sodipodi:docname="long.svg"
   inkscape:export-filename="symbols 5/dont cut.svg"
   inkscape:export-xdpi="96"
   inkscape:export-ydpi="96"
   xml:space="preserve"
   xmlns:inkscape="http://www.inkscape.org/namespaces/inkscape"
   xmlns:sodipodi="http://sodipodi.sourceforge.net/DTD/sodipodi-0.dtd"
   xmlns="http://www.w3.org/2000/svg"
   xmlns:svg="http://www.w3.org/2000/svg"><sodipodi:namedview
     id="namedview7"
     pagecolor="#ffffff"
     bordercolor="#666666"
     borderopacity="1.0"
     inkscape:showpageshadow="2"
     inkscape:pageopacity="0.0"
     inkscape:pagecheckerboard="0"
     inkscape:deskcolor="#d1d1d1"
     inkscape:document-units="mm"
     showgrid="false"
     inkscape:zoom="0.58295071"
     inkscape:cx="514.62327"
     inkscape:cy="556.65084"
     inkscape:window-width="1280"
     inkscape:window-height="739"
     inkscape:window-x="0"
     inkscape:window-y="0"
     inkscape:window-maximized="1"
     inkscape:current-layer="layer1"
     inkscape:lockguides="false" /><defs
     id="defs2" /><g
     inkscape:label="Layer 1"
     inkscape:groupmode="layer"
     id="layer1"
     transform="translate(180.42599,32.449538)"><g
       id="g25437"
       transform="translate(-16.035042,-87.134956)"><path
         id="rect7601-9-9-2-8-4-4-9-7-1"
         style="fill:#ffffff;stroke:#000000;stroke-width:2.11667;stroke-linecap:round;stroke-linejoin:round"
         transform="scale(-1,1)"
         d="m 138.18703,55.743752 h 25.14558 v 16.678932 h -25.14558 z" /><g
         aria-label="LONG"
         transform="scale(0.91586767,1.0918608)"
         id="text7611-2-6-0-2-0"
         style="font-size:11.2889px;line-height:125%;font-family:QTHelvetCnd-Black;-inkscape-font-specification:QTHelvetCnd-Black;letter-spacing:0px;word-spacing:0px;stroke-width:2.11667"><path
           d="m -171.48367,62.450951 v -1.580446 h -2.43841 v -5.96054 h -2.00942 v 7.540986 z"
           id="path1087" /><path
           d="m -165.61344,58.703036 c 0,-2.099736 -0.0452,-3.951115 -2.68676,-3.951115 -2.61902,0 -2.68676,1.851379 -2.68676,3.951115 0,2.05458 0.13547,3.928537 2.70934,3.928537 2.6416,0 2.66418,-1.873957 2.66418,-3.928537 z m -2.032,0 c 0,1.761068 0,2.619025 -0.63218,2.619025 -0.65476,0 -0.67733,-0.92569 -0.67733,-2.619025 0,-0.203201 -0.0226,-0.428979 -0.0226,-0.632179 0,-1.083734 0.0903,-1.964268 0.67733,-1.964268 0.58703,0 0.65476,0.948267 0.65476,2.009424 z"
           id="path1089" /><path
           d="m -159.42711,62.450951 v -7.540986 h -1.85138 v 4.31236 l -1.26436,-4.31236 h -2.16747 v 7.540986 h 1.8288 v -4.334938 l 1.33209,4.334938 z"
           id="path1091" /><path
           d="m -153.28596,62.450951 v -4.064005 h -2.52872 v 1.286935 h 0.67734 v 0.406401 c 0,0.541867 -0.0452,1.241779 -0.65476,1.241779 -0.6096,0 -0.67733,-0.677334 -0.67733,-2.009425 0,-0.158044 0.0226,-0.383822 0.0226,-0.564445 0,-0.225778 -0.0226,-0.474134 -0.0226,-0.677334 0,-1.12889 0.0903,-1.986846 0.65475,-1.986846 0.56445,0 0.58703,0.722489 0.58703,1.151468 v 0.04516 h 1.87395 c 0,-1.715913 -0.74506,-2.506136 -2.46098,-2.506136 -2.6416,0 -2.66418,1.806224 -2.66418,4.31236 0,1.603024 0.0677,3.544715 2.09974,3.544715 0.65476,0 1.39982,-0.135467 1.69333,-0.835379 0,0.203201 0.0226,0.428979 0.0452,0.654757 z"
           id="path1093" /></g></g></g></svg>
