<?xml version="1.0" encoding="UTF-8" standalone="no"?>
<!-- Created with Inkscape (http://www.inkscape.org/) -->

<svg
   width="32.82444mm"
   height="40mm"
   viewBox="0 0 32.824439 39.999999"
   version="1.1"
   id="svg5"
   inkscape:version="1.2.2 (b0a8486541, 2022-12-01)"
   sodipodi:docname="sharp.svg"
   inkscape:export-filename="symbols 5/dont cut.svg"
   inkscape:export-xdpi="96"
   inkscape:export-ydpi="96"
   xml:space="preserve"
   xmlns:inkscape="http://www.inkscape.org/namespaces/inkscape"
   xmlns:sodipodi="http://sodipodi.sourceforge.net/DTD/sodipodi-0.dtd"
   xmlns="http://www.w3.org/2000/svg"
   xmlns:svg="http://www.w3.org/2000/svg"><sodipodi:namedview
     id="namedview7"
     pagecolor="#ffffff"
     bordercolor="#666666"
     borderopacity="1.0"
     inkscape:showpageshadow="2"
     inkscape:pageopacity="0.0"
     inkscape:pagecheckerboard="0"
     inkscape:deskcolor="#d1d1d1"
     inkscape:document-units="mm"
     showgrid="false"
     inkscape:zoom="0.58295071"
     inkscape:cx="133.80205"
     inkscape:cy="129.51352"
     inkscape:window-width="1280"
     inkscape:window-height="739"
     inkscape:window-x="0"
     inkscape:window-y="0"
     inkscape:window-maximized="1"
     inkscape:current-layer="layer1"
     inkscape:lockguides="false" /><defs
     id="defs2" /><g
     inkscape:label="Layer 1"
     inkscape:groupmode="layer"
     id="layer1"
     transform="translate(215.91769,11.180761)"><g
       id="g27133"
       transform="translate(-14.383517,-86.543567)"><path
         id="rect7601-9-9-2-8-4-4-9-7-1-1-1"
         style="fill:#ffffff;stroke:#000000;stroke-width:2.11667;stroke-linecap:round;stroke-linejoin:round"
         transform="scale(-1,1)"
         d="m 169.76807,76.421135 h 30.70777 v 16.678928 h -30.70777 z" /><g
         aria-label="SHARP"
         transform="scale(0.91586767,1.0918608)"
         id="text7611-2-6-0-2-0-7-1"
         style="font-size:11.2889px;line-height:125%;font-family:QTHelvetCnd-Black;-inkscape-font-specification:QTHelvetCnd-Black;letter-spacing:0px;word-spacing:0px;stroke-width:2.11667"><path
           d="m -211.50848,79.198625 c 0,-2.709336 -3.18347,-2.05458 -3.18347,-3.522137 0,-0.361245 0.2032,-0.632178 0.58703,-0.632178 0.49671,0 0.54186,0.564445 0.54186,0.948267 h 1.87396 c 0,-1.648179 -0.88053,-2.280357 -2.4384,-2.280357 -1.44498,0 -2.50614,0.654756 -2.50614,2.212624 0,2.889959 3.13832,1.964269 3.13832,3.58987 0,0.406401 -0.24836,0.72249 -0.67734,0.72249 -0.6096,0 -0.63218,-0.677334 -0.63218,-1.12889 h -1.87395 c 0,0.04516 -0.0226,0.09031 -0.0226,0.112889 0,1.761068 0.83538,2.348091 2.52871,2.348091 1.64818,0 2.66418,-0.6096 2.66418,-2.370669 z"
           id="path2318" /><path
           d="m -205.5931,81.388672 v -7.540986 h -1.98685 v 2.77707 h -1.15147 v -2.77707 h -1.98684 v 7.540986 h 1.98684 v -3.115737 h 1.15147 v 3.115737 z"
           id="path2320" /><path
           d="m -199.04553,81.388672 -1.80623,-7.540986 h -2.48356 l -1.87395,7.540986 h 2.07715 l 0.24836,-1.264357 h 1.53529 l 0.24836,1.264357 z m -2.5513,-2.799647 h -1.08373 l 0.54187,-3.228626 z"
           id="path2322" /><path
           d="m -193.22047,81.388672 v -0.112889 c -0.27093,-0.112889 -0.29351,-0.496712 -0.29351,-0.835379 0,-0.293511 -0.0226,-0.587023 -0.0226,-0.880534 -0.0226,-0.970845 -0.11289,-1.761068 -1.24178,-1.896535 0.94827,-0.2032 1.28694,-0.812801 1.28694,-1.761069 0,-1.693335 -0.94827,-2.05458 -2.41583,-2.05458 h -2.73191 v 7.540986 h 1.98685 v -3.048003 c 1.24177,0 1.12889,0.316089 1.15146,1.354668 l 0.0226,0.6096 c 0,0.338667 0,0.767646 0.15805,1.083735 z m -2.2352,-5.260628 c 0,0.812801 -0.51929,0.880535 -1.19662,0.880535 V 75.24751 c 0.72249,0 1.19662,0.02258 1.19662,0.880534 z"
           id="path2324" /><path
           d="m -187.55343,76.1732 c 0,-1.761069 -0.99343,-2.325514 -2.61903,-2.325514 h -2.50613 v 7.540986 h 1.98684 v -2.889959 h 0.65476 c 1.53529,0 2.48356,-0.745067 2.48356,-2.325513 z m -2.03201,0.02258 c 0,0.790223 -0.4064,0.903112 -1.12889,0.903112 v -1.85138 c 0.74507,0 1.12889,0.112889 1.12889,0.948268 z"
           id="path2326" /></g></g></g></svg>
