<?xml version="1.0" encoding="UTF-8" standalone="no"?>
<!-- Created with Inkscape (http://www.inkscape.org/) -->

<svg
   width="19.172653mm"
   height="18.795609mm"
   viewBox="0 0 19.172653 18.795608"
   version="1.1"
   id="svg5"
   inkscape:version="1.2.1 (9c6d41e410, 2022-07-14)"
   sodipodi:docname="arrows.svg"
   inkscape:export-filename="symbols 5/dont cut.svg"
   inkscape:export-xdpi="96"
   inkscape:export-ydpi="96"
   xml:space="preserve"
   xmlns:inkscape="http://www.inkscape.org/namespaces/inkscape"
   xmlns:sodipodi="http://sodipodi.sourceforge.net/DTD/sodipodi-0.dtd"
   xmlns="http://www.w3.org/2000/svg"
   xmlns:svg="http://www.w3.org/2000/svg"><sodipodi:namedview
     id="namedview7"
     pagecolor="#ffffff"
     bordercolor="#666666"
     borderopacity="1.0"
     inkscape:showpageshadow="2"
     inkscape:pageopacity="0.0"
     inkscape:pagecheckerboard="0"
     inkscape:deskcolor="#d1d1d1"
     inkscape:document-units="mm"
     showgrid="false"
     inkscape:zoom="0.58295071"
     inkscape:cx="608.11316"
     inkscape:cy="555.79313"
     inkscape:window-width="1920"
     inkscape:window-height="1043"
     inkscape:window-x="0"
     inkscape:window-y="0"
     inkscape:window-maximized="1"
     inkscape:current-layer="layer1"
     inkscape:lockguides="false" /><defs
     id="defs2" /><g
     inkscape:label="Layer 1"
     inkscape:groupmode="layer"
     id="layer1"
     transform="translate(194.15398,-54.962995)"><g
       id="g34600"
       transform="translate(-22.339894,-73.37981)"><rect
         style="fill:#ff0000;fill-opacity:1;stroke:#000000;stroke-width:2.11667;stroke-linecap:round;stroke-linejoin:round;stroke-dasharray:none;paint-order:normal"
         id="rect7601-9-9-2-8-6-4-92-6-1-3-6-9"
         width="17.055986"
         height="16.678934"
         x="153.69977"
         y="129.40114"
         transform="scale(-1,1)" /><path
         fill="#000000"
         d="m -157.74668,132.71203 c -0.23516,0 -0.43224,0.16661 -0.48248,0.38984 -0.22717,0.0993 -0.4017,0.28486 -0.5031,0.50476 -0.1389,0.30112 -0.18103,0.66131 -0.18923,1.05478 -0.0139,0.66818 0.079,1.4416 0.11981,2.12041 -0.0471,0.39349 -0.12867,0.76515 -0.2396,1.11094 0.0751,0.48117 0.0896,0.97895 0.0248,1.48071 -0.13264,1.02723 -0.96548,1.64024 -1.85642,1.82277 -0.82081,0.16824 -1.72665,0.0112 -2.31736,-0.52063 -0.91874,0.60663 -2.0263,0.76675 -2.97168,0.44522 -1.11163,0.43594 -1.97036,1.0417 -2.31658,1.64835 h 8.50446 c 2.72579,0 3.64705,-2.89469 2.94524,-6.05106 -4.9e-4,6.1e-4 -8.1e-4,8.2e-4 -0.002,0.002 -0.15095,-1.09611 0.0259,-1.89021 0.39408,-2.38536 0.0517,0.0187 0.10722,0.0294 0.16523,0.0294 0.27317,0 0.49405,-0.22501 0.49405,-0.50227 0,-0.27721 -0.22088,-0.50221 -0.49405,-0.50221 -0.27318,0 -0.49491,0.225 -0.49491,0.50227 0,0.0273 0.002,0.0536 0.007,0.0796 -0.56157,0.67519 -0.76282,1.76297 -0.50891,3.16347 -0.27219,0.12975 -0.5592,0.0772 -0.83108,-0.18111 -0.034,-0.75131 -0.1418,-1.59024 -0.12806,-2.2512 0.007,-0.35966 0.0547,-0.66325 0.1421,-0.85267 0.0555,-0.12047 0.11162,-0.19705 0.19749,-0.24234 0.0887,0.0857 0.20896,0.13917 0.34116,0.13917 0.27318,0 0.49406,-0.22499 0.49406,-0.50227 0,-0.2772 -0.22088,-0.5022 -0.49406,-0.5022 z m -6.13752,0.85687 c -0.058,-3e-4 -0.11627,8.4e-4 -0.17433,0.003 -0.92908,0.0381 -1.85435,0.41521 -2.61893,1.10677 -1.49978,1.35648 -1.57116,3.8794 -0.24288,5.39625 1.02174,1.0276 2.82496,0.93343 4.00522,-0.26412 0.99699,-1.00908 1.0736,-2.54827 0.23211,-3.40745 -0.58426,-0.59644 -1.61255,-0.66586 -2.26943,0.0319 -0.14631,0.15534 -0.23741,0.42982 -0.23545,0.72189 0.002,0.29211 0.0966,0.59035 0.25199,0.77977 0.095,0.11572 0.2809,0.22742 0.48909,0.28087 0.12391,0.0319 0.25369,0.0423 0.3726,0.0336 0.34884,-0.005 0.69149,-0.24175 0.69149,-0.71433 0,-0.42178 -0.27314,-0.65541 -0.57995,-0.7051 0.2055,-0.0187 0.39082,0.0166 0.54445,0.1022 0.22497,0.12551 0.36192,0.34728 0.40893,0.57773 0.0931,0.45597 -0.14482,0.99608 -0.67169,1.1629 l 8e-4,0.002 c -0.004,0.002 -0.009,0.002 -0.0132,0.003 -0.002,4.1e-4 -0.003,0.002 -0.003,0.002 -0.27949,0.1007 -0.58695,0.0957 -0.87158,0.0227 -0.2902,-0.0745 -0.56147,-0.21912 -0.74769,-0.44605 -0.24899,-0.30334 -0.36335,-0.70355 -0.366,-1.09666 -0.002,-0.39312 0.10602,-0.79023 0.37176,-1.07242 0.84678,-0.89934 2.20123,-0.83174 2.97748,-0.0393 1.05695,1.07912 0.93275,2.93395 -0.23379,4.11508 v 8.1e-4 c -0.0694,0.0704 -0.14234,0.13566 -0.21562,0.19956 0.44988,0.34075 1.16382,0.47236 1.81178,0.3396 0.74701,-0.15309 1.36215,-0.60815 1.46395,-1.3969 0.25094,-1.94399 -0.90453,-3.95324 -1.91007,-4.80934 -0.73133,-0.62273 -1.59685,-0.9258 -2.46771,-0.92983 z"
         id="path4679-8"
         style="stroke-width:2.11667;stroke-dasharray:none" /></g></g></svg>
