<?xml version="1.0" encoding="UTF-8" standalone="no"?>
<!-- Created with Inkscape (http://www.inkscape.org/) -->

<svg
   width="34.579651mm"
   height="40mm"
   viewBox="0 0 34.57965 39.999998"
   version="1.1"
   id="svg5"
   inkscape:version="1.2.2 (b0a8486541, 2022-12-01)"
   sodipodi:docname="very long.svg"
   inkscape:export-filename="symbols 5/dont cut.svg"
   inkscape:export-xdpi="96"
   inkscape:export-ydpi="96"
   xml:space="preserve"
   xmlns:inkscape="http://www.inkscape.org/namespaces/inkscape"
   xmlns:sodipodi="http://sodipodi.sourceforge.net/DTD/sodipodi-0.dtd"
   xmlns="http://www.w3.org/2000/svg"
   xmlns:svg="http://www.w3.org/2000/svg"><sodipodi:namedview
     id="namedview7"
     pagecolor="#ffffff"
     bordercolor="#666666"
     borderopacity="1.0"
     inkscape:showpageshadow="2"
     inkscape:pageopacity="0.0"
     inkscape:pagecheckerboard="0"
     inkscape:deskcolor="#d1d1d1"
     inkscape:document-units="mm"
     showgrid="false"
     inkscape:zoom="0.58295071"
     inkscape:cx="509.47704"
     inkscape:cy="187.83749"
     inkscape:window-width="1280"
     inkscape:window-height="739"
     inkscape:window-x="0"
     inkscape:window-y="0"
     inkscape:window-maximized="1"
     inkscape:current-layer="layer1"
     inkscape:lockguides="false" /><defs
     id="defs2" /><g
     inkscape:label="Layer 1"
     inkscape:groupmode="layer"
     id="layer1"
     transform="translate(182.21872,52.295034)"><g
       id="g22072"
       transform="translate(-8.8240184,-86.363629)"
       inkscape:export-filename="very long.svg"
       inkscape:export-xdpi="96"
       inkscape:export-ydpi="96"><path
         id="rect7601-9-9-2-8-4-4-9-7-1-5"
         style="fill:#ffffff;stroke:#000000;stroke-width:2.11667;stroke-linecap:round;stroke-linejoin:round"
         transform="scale(-1,1)"
         d="m 139.87338,35.12693 h 32.46298 v 16.678932 h -32.46298 z" /><g
         aria-label="V.LONG"
         transform="scale(0.91586767,1.0918608)"
         id="text7611-2-6-0-2-0-9"
         style="font-size:11.2889px;line-height:125%;font-family:QTHelvetCnd-Black;-inkscape-font-specification:QTHelvetCnd-Black;letter-spacing:0px;word-spacing:0px;stroke-width:2.11667"><path
           d="m -180.20969,36.027691 h -2.07716 l -0.79022,5.418672 -0.79022,-5.418672 h -2.1449 l 1.64818,7.540985 h 2.50614 z"
           id="path1482" /><path
           d="m -178.49378,43.568676 v -2.077158 h -1.76107 v 2.077158 z"
           id="path1484" /><path
           d="M -173.0751,43.568676 V 41.98823 h -2.4384 v -5.960539 h -2.00943 v 7.540985 z"
           id="path1486" /><path
           d="m -167.20487,39.820761 c 0,-2.099735 -0.0452,-3.951115 -2.68676,-3.951115 -2.61902,0 -2.68675,1.85138 -2.68675,3.951115 0,2.05458 0.13546,3.928537 2.70933,3.928537 2.6416,0 2.66418,-1.873957 2.66418,-3.928537 z m -2.032,0 c 0,1.761069 0,2.619025 -0.63218,2.619025 -0.65475,0 -0.67733,-0.92569 -0.67733,-2.619025 0,-0.2032 -0.0226,-0.428978 -0.0226,-0.632178 0,-1.083735 0.0903,-1.964269 0.67733,-1.964269 0.58703,0 0.65476,0.948268 0.65476,2.009424 z"
           id="path1488" /><path
           d="m -161.01854,43.568676 v -7.540985 h -1.85138 v 4.312359 l -1.26436,-4.312359 h -2.16747 v 7.540985 h 1.82881 v -4.334938 l 1.33209,4.334938 z"
           id="path1490" /><path
           d="m -154.87739,43.568676 v -4.064004 h -2.52871 v 1.286935 h 0.67733 v 0.4064 c 0,0.541867 -0.0452,1.241779 -0.65475,1.241779 -0.60961,0 -0.67734,-0.677334 -0.67734,-2.009424 0,-0.158045 0.0226,-0.383823 0.0226,-0.564445 0,-0.225778 -0.0226,-0.474134 -0.0226,-0.677334 0,-1.12889 0.0903,-1.986847 0.65476,-1.986847 0.56444,0 0.58702,0.72249 0.58702,1.151468 v 0.04516 h 1.87396 c 0,-1.715913 -0.74507,-2.506136 -2.46098,-2.506136 -2.64161,0 -2.66418,1.806224 -2.66418,4.31236 0,1.603024 0.0677,3.544714 2.09973,3.544714 0.65476,0 1.39983,-0.135466 1.69334,-0.835378 0,0.2032 0.0226,0.428978 0.0452,0.654756 z"
           id="path1492" /></g></g></g></svg>
