<?xml version="1.0" encoding="UTF-8" standalone="no"?>
<!-- Created with Inkscape (http://www.inkscape.org/) -->

<svg
   width="32.86203mm"
   height="40mm"
   viewBox="0 0 32.862029 39.999998"
   version="1.1"
   id="svg5"
   inkscape:version="1.2.2 (b0a8486541, 2022-12-01)"
   sodipodi:docname="very late.svg"
   inkscape:export-filename="symbols 5/dont cut.svg"
   inkscape:export-xdpi="96"
   inkscape:export-ydpi="96"
   xml:space="preserve"
   xmlns:inkscape="http://www.inkscape.org/namespaces/inkscape"
   xmlns:sodipodi="http://sodipodi.sourceforge.net/DTD/sodipodi-0.dtd"
   xmlns="http://www.w3.org/2000/svg"
   xmlns:svg="http://www.w3.org/2000/svg"><sodipodi:namedview
     id="namedview7"
     pagecolor="#ffffff"
     bordercolor="#666666"
     borderopacity="1.0"
     inkscape:showpageshadow="2"
     inkscape:pageopacity="0.0"
     inkscape:pagecheckerboard="0"
     inkscape:deskcolor="#d1d1d1"
     inkscape:document-units="mm"
     showgrid="false"
     inkscape:zoom="0.58295071"
     inkscape:cx="109.7863"
     inkscape:cy="319.92413"
     inkscape:window-width="1280"
     inkscape:window-height="739"
     inkscape:window-x="0"
     inkscape:window-y="0"
     inkscape:window-maximized="1"
     inkscape:current-layer="layer1"
     inkscape:lockguides="false" /><defs
     id="defs2" /><g
     inkscape:label="Layer 1"
     inkscape:groupmode="layer"
     id="layer1"
     transform="translate(145.68202,52.085367)"><g
       id="g23749"
       transform="translate(-19.938393,-87.06199)"><path
         id="rect7601-9-9-2-8-4-4-9-7-2"
         style="fill:#ffffff;stroke:#000000;stroke-width:2.11667;stroke-linecap:round;stroke-linejoin:round"
         transform="scale(-1,1)"
         d="M 93.939934,36.034958 H 124.68529 V 52.713894 H 93.939934 Z" /><g
         aria-label="V.LATE"
         transform="scale(0.91586767,1.0918608)"
         id="text7611-2-6-0-2-2"
         style="font-size:11.2889px;line-height:125%;font-family:QTHelvetCnd-Black;-inkscape-font-specification:QTHelvetCnd-Black;letter-spacing:0px;word-spacing:0px;stroke-width:2.11667"><path
           d="m -128.22724,36.859325 h -2.07716 l -0.79022,5.418672 -0.79022,-5.418672 h -2.14489 l 1.64818,7.540986 h 2.50613 z"
           id="path1634" /><path
           d="m -126.51133,44.400311 v -2.077158 h -1.76107 v 2.077158 z"
           id="path1636" /><path
           d="m -121.09265,44.400311 v -1.580447 h -2.4384 v -5.960539 h -2.00943 v 7.540986 z"
           id="path1638" /><path
           d="m -114.61281,44.400311 -1.80622,-7.540986 h -2.48356 l -1.87396,7.540986 h 2.07716 l 0.24836,-1.264357 h 1.53529 l 0.24835,1.264357 z m -2.55129,-2.799648 h -1.08373 l 0.54187,-3.228625 z"
           id="path1640" /><path
           d="m -110.11983,38.507505 v -1.64818 h -4.96711 v 1.64818 h 1.51271 v 5.892806 h 1.96427 v -5.892806 z"
           id="path1642" /><path
           d="m -104.67857,44.400311 v -1.580447 h -2.59644 v -1.512712 h 2.32551 v -1.557868 h -2.32551 v -1.309513 h 2.48356 v -1.580446 h -4.44783 v 7.540986 z"
           id="path1644" /></g></g></g></svg>
